<svg width="52" height="52" viewBox="0 0 52 52" fill="none" xmlns="http://www.w3.org/2000/svg">
<g id="assignment_svgrepo.com" clip-path="url(#clip0_2820_2085)">
<path id="Vector" fill-rule="evenodd" clip-rule="evenodd" d="M38.7641 0C39.3164 0 39.7641 0.447715 39.7641 1V14.2939C39.7641 14.8462 39.3164 15.2939 38.7641 15.2939H37.7053C37.1531 15.2939 36.7053 14.8462 36.7053 14.2939V4.05879C36.7053 3.50651 36.2576 3.05879 35.7053 3.05879H4.05879C3.5065 3.05879 3.05879 3.50651 3.05879 4.05879V47.9404C3.05879 48.4927 3.50651 48.9404 4.05879 48.9404H35.7053C36.2576 48.9404 36.7053 48.4927 36.7053 47.9404V43.8229C36.7053 43.2706 37.1531 42.8229 37.7053 42.8229H38.7641C39.3164 42.8229 39.7641 43.2706 39.7641 43.8229V50.9992C39.7641 51.5515 39.3164 51.9992 38.7641 51.9992H0.999999C0.447714 51.9992 0 51.5515 0 50.9992V0.999999C0 0.447714 0.447715 0 1 0H38.7641ZM43.2695 15.7438C43.869 15.1443 44.8356 15.1443 45.4351 15.7438L51.5527 21.8614C52.1491 22.4579 52.1491 23.4244 51.5527 24.0239L33.2 42.3766C32.9124 42.6611 32.524 42.8232 32.1172 42.8232H25.9996C25.1554 42.8232 24.4702 42.138 24.4702 41.2938V35.1762C24.4702 34.7694 24.6323 34.381 24.9168 34.0965L43.2695 15.7438ZM39.7708 24.9819C39.3803 24.5913 38.7471 24.5913 38.3566 24.9819L27.8219 35.5165C27.6344 35.7041 27.529 35.9584 27.529 36.2236V38.7644C27.529 39.3167 27.9767 39.7644 28.529 39.7644H31.0698C31.335 39.7644 31.5893 39.6591 31.7769 39.4715L42.3115 28.9369C42.7021 28.5464 42.7021 27.9132 42.3115 27.5227L39.7708 24.9819ZM17.3527 33.6469C17.905 33.6469 18.3527 34.0946 18.3527 34.6469V35.7057C18.3527 36.2579 17.905 36.7057 17.3527 36.7057H10.1764C9.62409 36.7057 9.17637 36.2579 9.17637 35.7057V34.6469C9.17637 34.0946 9.62409 33.6469 10.1764 33.6469H17.3527ZM23.4703 27.5293C24.0225 27.5293 24.4703 27.977 24.4703 28.5293V29.5881C24.4703 30.1404 24.0225 30.5881 23.4703 30.5881H10.1763C9.62403 30.5881 9.17632 30.1404 9.17632 29.5881V28.5293C9.17632 27.977 9.62404 27.5293 10.1763 27.5293H23.4703ZM45.0594 19.6932C44.6689 19.3027 44.0357 19.3027 43.6452 19.6932L41.9333 21.4051C41.5428 21.7956 41.5428 22.4288 41.9333 22.8193L44.4741 25.3601C44.8646 25.7506 45.4978 25.7506 45.8883 25.3601L47.6002 23.6483C47.9907 23.2577 47.9907 22.6246 47.6002 22.234L45.0594 19.6932ZM29.5878 9.17665C30.1401 9.17665 30.5878 9.62436 30.5878 10.1766V20.4118C30.5878 20.964 30.1401 21.4118 29.5878 21.4118H10.1764C9.62409 21.4118 9.17637 20.964 9.17637 20.4118V10.1766C9.17637 9.62436 9.62409 9.17665 10.1764 9.17665H29.5878ZM27.529 13.2354C27.529 12.6831 27.0813 12.2354 26.529 12.2354H13.2351C12.6829 12.2354 12.2351 12.6832 12.2351 13.2354V17.353C12.2351 17.9053 12.6829 18.353 13.2351 18.353H26.529C27.0813 18.353 27.529 17.9052 27.529 17.353L27.529 13.2354Z" fill="#EF4136"/>
</g>
<defs>
<clipPath id="clip0_2820_2085">
<rect width="52" height="52" fill="white"/>
</clipPath>
</defs>
</svg>
