<svg width="76" height="77" viewBox="0 0 76 77" fill="none" xmlns="http://www.w3.org/2000/svg">
<g id="brain_svgrepo.com">
<path id="Vector" d="M41.5616 12.2324C46.0622 13.8712 54.8497 18.3362 54.4222 28.5843C54.4076 28.8933 54.5141 29.1958 54.7191 29.4274L60.7991 36.1605C61.1864 36.5955 61.4004 37.1576 61.4004 37.7399C61.4004 38.3223 61.1864 38.8844 60.7991 39.3193L58.5429 41.8843C57.6155 42.9486 57.0977 44.3084 57.0822 45.7199L56.9991 51.8712C56.9991 52.816 56.6238 53.7221 55.9557 54.3902C55.2876 55.0583 54.3814 55.4337 53.4366 55.4337H50.9191C49.6593 55.4337 48.4511 55.9341 47.5603 56.8249C46.6696 57.7157 46.1691 58.9239 46.1691 60.1837V65.2187C46.1691 65.5336 46.044 65.8357 45.8213 66.0584C45.5986 66.2811 45.2965 66.4062 44.9816 66.4062H30.1972C29.8823 66.4062 29.5802 66.2811 29.3575 66.0584C29.1348 65.8357 29.0097 65.5336 29.0097 65.2187V49.5555C29.0107 49.1059 28.884 48.6652 28.6443 48.2847C28.4047 47.9042 28.062 47.5995 27.656 47.4062C23.4404 45.3637 11.126 38.0962 15.5316 24.5587C16.6247 20.9127 18.8241 17.6966 21.8253 15.3555" stroke="#EF4136" stroke-width="2.8125" stroke-miterlimit="10" stroke-linecap="round"/>
<path id="Vector_2" d="M26.3625 26.9336C26.3625 22.9198 23.8925 19.5711 22.5506 17.0892C21.8096 15.7368 21.4062 14.2254 21.375 12.6836C21.375 7.41109 26.1844 3.18359 31.4569 3.18359" stroke="#EF4136" stroke-width="2.8125" stroke-miterlimit="10"/>
<path id="Vector_3" d="M36.6341 26.9336C36.6341 22.9198 39.1159 19.5711 40.4459 17.0892C41.169 15.7326 41.552 14.2208 41.5622 12.6836C41.5622 7.41109 36.8122 3.18359 31.4922 3.18359" stroke="#EF4136" stroke-width="2.8125" stroke-miterlimit="10"/>
<path id="Vector_4" d="M37.3823 26.7432H26.0061C25.0945 26.7432 24.3555 27.4822 24.3555 28.3938V29.89C24.3555 30.8017 25.0945 31.5407 26.0061 31.5407H37.3823C38.294 31.5407 39.033 30.8017 39.033 29.89V28.3938C39.033 27.4822 38.294 26.7432 37.3823 26.7432Z" stroke="#EF4136" stroke-width="2.8125" stroke-miterlimit="10"/>
<path id="Vector_5" d="M35.3762 31.541V34.0585C35.3762 35.5666 33.963 36.7779 31.6949 36.7779C29.2012 36.7779 28.0137 35.5904 28.0137 34.0585V31.541" stroke="#EF4136" stroke-width="2.8125" stroke-miterlimit="10"/>
</g>
</svg>
