<svg width="77" height="77" viewBox="0 0 77 77" fill="none" xmlns="http://www.w3.org/2000/svg">
<g id="brainstorm-idea_svgrepo.com" clip-path="url(#clip0_2488_7455)">
<g id="Group">
<g id="Group_2">
<path id="Vector" d="M69.2774 62.7579C71.4454 61.2061 72.8617 58.6684 72.8617 55.8051C72.8617 51.0926 69.0279 47.2588 64.3155 47.2588C59.603 47.2588 55.7692 51.0926 55.7692 55.8051C55.7692 58.6693 57.1865 61.2077 59.3554 62.7592C55.1024 64.6625 52.1309 68.9328 52.1309 73.8858C52.1309 74.6175 52.7242 75.2109 53.456 75.2109C54.1878 75.2109 54.7811 74.6175 54.7811 73.8858C54.7811 68.6284 59.0581 64.3513 64.3155 64.3513C69.5728 64.3513 73.8499 68.6284 73.8499 73.8858C73.8499 74.6175 74.4432 75.2109 75.175 75.2109C75.9068 75.2109 76.5001 74.6175 76.5001 73.8858C76.4998 68.9331 73.5297 64.6614 69.2774 62.7579ZM64.3155 61.7011C61.0643 61.7011 58.4194 59.0561 58.4194 55.8051C58.4194 52.554 61.0644 49.909 64.3155 49.909C67.5667 49.909 70.2115 52.554 70.2115 55.8051C70.2115 59.0561 67.5667 61.7011 64.3155 61.7011Z" fill="#EF4136"/>
</g>
</g>
<g id="Group_3">
<g id="Group_4">
<path id="Vector_2" d="M46.9536 5.20894C44.6409 2.9285 41.5742 1.69573 38.327 1.74353C31.6959 1.8366 26.3723 7.31037 26.4601 13.9452C26.5009 17.0284 27.7056 19.9461 29.8524 22.1612C31.3135 23.6687 32.118 25.6164 32.118 27.6455V29.1823C32.118 32.2821 34.6398 34.8039 37.7396 34.8039H39.2599C42.3598 34.8039 44.8816 32.2821 44.8816 29.1823V27.6454C44.8816 25.6133 45.6831 23.6686 47.1387 22.1698C49.3324 19.9108 50.5407 16.9322 50.5407 13.7828C50.5407 10.5347 49.2668 7.48998 46.9536 5.20894ZM42.2315 29.1824C42.2315 30.8209 40.8985 32.1539 39.2601 32.1539H37.7398C36.1013 32.1539 34.7684 30.8209 34.7684 29.1824V28.9708H42.2317L42.2315 29.1824ZM45.2377 20.3239C43.6163 21.9935 42.6071 24.0861 42.3192 26.3207H39.8249V18.681L43.7465 14.7594C44.2639 14.2419 44.2639 13.4028 43.7465 12.8855C43.229 12.3681 42.3899 12.3681 41.8726 12.8855L38.4998 16.2585L35.1272 12.8855C34.6097 12.3681 33.7706 12.3681 33.2533 12.8855C32.7358 13.403 32.7358 14.2421 33.2533 14.7594L37.1748 18.681V26.3207H34.6802C34.3915 24.0884 33.38 21.9933 31.7556 20.317C30.0813 18.5895 29.142 16.3143 29.1101 13.9103C29.0417 8.73536 33.1932 4.46601 38.3644 4.39343C38.4098 4.39283 38.4553 4.39254 38.5007 4.39254C40.9852 4.39254 43.3218 5.34951 45.0931 7.09617C46.8973 8.87504 47.8907 11.2499 47.8907 13.7833C47.8905 16.2392 46.9484 18.5621 45.2377 20.3239Z" fill="#EF4136"/>
</g>
</g>
<g id="Group_5">
<g id="Group_6">
<path id="Vector_3" d="M25.9053 35.1918C25.388 34.6743 24.549 34.6743 24.0314 35.1918L16.0814 43.1418C15.564 43.6591 15.564 44.4981 16.0814 45.0157C16.34 45.2745 16.6794 45.4038 17.0184 45.4038C17.3574 45.4038 17.6966 45.2745 17.9553 45.0157L25.9053 37.0657C26.4228 36.5484 26.4228 35.7093 25.9053 35.1918Z" fill="#EF4136"/>
</g>
</g>
<g id="Group_7">
<g id="Group_8">
<path id="Vector_4" d="M60.919 43.1418L52.969 35.1918C52.4517 34.6743 51.6127 34.6743 51.0951 35.1918C50.5777 35.7091 50.5777 36.5481 51.0951 37.0657L59.0451 45.0157C59.3037 45.2745 59.643 45.4038 59.9821 45.4038C60.3211 45.4038 60.6603 45.2745 60.919 45.0157C61.4364 44.4982 61.4364 43.6593 60.919 43.1418Z" fill="#EF4136"/>
</g>
</g>
<g id="Group_9">
<g id="Group_10">
<path id="Vector_5" d="M38.5009 37.9609C37.7691 37.9609 37.1758 38.5542 37.1758 39.286V44.3439C37.1758 45.0757 37.7691 45.669 38.5009 45.669C39.2327 45.669 39.826 45.0757 39.826 44.3439V39.286C39.826 38.5542 39.2327 37.9609 38.5009 37.9609Z" fill="#EF4136"/>
</g>
</g>
<g id="Group_11">
<g id="Group_12">
<path id="Vector_6" d="M61.2919 54.159C62.0237 54.159 62.617 53.5657 62.617 52.8339C62.617 52.1021 62.0237 51.5088 61.2919 51.5088C60.5601 51.5088 59.9668 52.1021 59.9668 52.8339C59.9668 53.5657 60.5601 54.159 61.2919 54.159Z" fill="#EF4136"/>
</g>
</g>
<g id="Group_13">
<g id="Group_14">
<path id="Vector_7" d="M66.1493 54.159C66.8811 54.159 67.4744 53.5657 67.4744 52.8339C67.4744 52.1021 66.8811 51.5088 66.1493 51.5088C65.4175 51.5088 64.8242 52.1021 64.8242 52.8339C64.8242 53.5657 65.4175 54.159 66.1493 54.159Z" fill="#EF4136"/>
</g>
</g>
<g id="Group_15">
<g id="Group_16">
<path id="Vector_8" d="M43.463 62.7579C45.6309 61.2061 47.0473 58.6684 47.0473 55.8051C47.0473 51.0926 43.2135 47.2588 38.501 47.2588C33.7886 47.2588 29.9548 51.0926 29.9548 55.8051C29.9548 58.6693 31.372 61.2077 33.541 62.7592C29.288 64.6625 26.3164 68.9328 26.3164 73.8858C26.3164 74.6175 26.9097 75.2109 27.6415 75.2109C28.3733 75.2109 28.9666 74.6175 28.9666 73.8858C28.9666 68.6284 33.2437 64.3513 38.501 64.3513C43.7584 64.3513 48.0354 68.6284 48.0354 73.8858C48.0354 74.6175 48.6287 75.2109 49.3605 75.2109C50.0923 75.2109 50.6856 74.6175 50.6856 73.8858C50.6853 68.9331 47.7153 64.6614 43.463 62.7579ZM38.5009 61.7011C35.2497 61.7011 32.6048 59.0561 32.6048 55.8051C32.6048 52.554 35.25 49.9088 38.5009 49.9088C41.7521 49.9088 44.397 52.5538 44.397 55.8049C44.397 59.0561 41.7521 61.7011 38.5009 61.7011Z" fill="#EF4136"/>
</g>
</g>
<g id="Group_17">
<g id="Group_18">
<path id="Vector_9" d="M36.0712 54.159C36.803 54.159 37.3963 53.5657 37.3963 52.8339C37.3963 52.1021 36.803 51.5088 36.0712 51.5088C35.3394 51.5088 34.7461 52.1021 34.7461 52.8339C34.7461 53.5657 35.3394 54.159 36.0712 54.159Z" fill="#EF4136"/>
</g>
</g>
<g id="Group_19">
<g id="Group_20">
<path id="Vector_10" d="M40.9306 54.159C41.6624 54.159 42.2557 53.5657 42.2557 52.8339C42.2557 52.1021 41.6624 51.5088 40.9306 51.5088C40.1987 51.5088 39.6055 52.1021 39.6055 52.8339C39.6055 53.5657 40.1987 54.159 40.9306 54.159Z" fill="#EF4136"/>
</g>
</g>
<g id="Group_21">
<g id="Group_22">
<path id="Vector_11" d="M17.6445 62.7592C19.8135 61.2076 21.2307 58.6693 21.2307 55.8051C21.2307 51.0926 17.3969 47.2588 12.6845 47.2588C7.97203 47.2588 4.1382 51.0926 4.1382 55.8051C4.1382 58.6684 5.55458 61.2064 7.72251 62.7579C3.47008 64.6616 0.5 68.9333 0.5 73.8858C0.5 74.6175 1.0933 75.2109 1.8251 75.2109C2.55689 75.2109 3.1502 74.6175 3.1502 73.8858C3.1502 68.6284 7.42727 64.3513 12.6846 64.3513C17.942 64.3513 22.219 68.6284 22.219 73.8858C22.219 74.6175 22.8123 75.2109 23.5441 75.2109C24.2759 75.2109 24.8692 74.6175 24.8692 73.8858C24.8689 68.9328 21.8975 64.6626 17.6445 62.7592ZM12.6845 61.7013C9.43325 61.7013 6.78839 59.0563 6.78839 55.8052C6.78839 52.5541 9.4334 49.9091 12.6845 49.9091C15.9357 49.9091 18.5805 52.5541 18.5805 55.8052C18.5805 59.0563 15.9357 61.7013 12.6845 61.7013Z" fill="#EF4136"/>
</g>
</g>
<g id="Group_23">
<g id="Group_24">
<path id="Vector_12" d="M15.7079 54.159C16.4397 54.159 17.033 53.5657 17.033 52.8339C17.033 52.1021 16.4397 51.5088 15.7079 51.5088C14.9761 51.5088 14.3828 52.1021 14.3828 52.8339C14.3828 53.5657 14.9761 54.159 15.7079 54.159Z" fill="#EF4136"/>
</g>
</g>
<g id="Group_25">
<g id="Group_26">
<path id="Vector_13" d="M10.8485 54.159C11.5804 54.159 12.1736 53.5657 12.1736 52.8339C12.1736 52.1021 11.5804 51.5088 10.8485 51.5088C10.1167 51.5088 9.52344 52.1021 9.52344 52.8339C9.52344 53.5657 10.1167 54.159 10.8485 54.159Z" fill="#EF4136"/>
</g>
</g>
</g>
<defs>
<clipPath id="clip0_2488_7455">
<rect width="76" height="76" fill="white" transform="translate(0.5 0.476562)"/>
</clipPath>
</defs>
</svg>
