<svg width="56" height="56" viewBox="0 0 56 56" fill="none" xmlns="http://www.w3.org/2000/svg">
<g id="call_svgrepo.com">
<path id="Vector" d="M51.2627 42.7703C51.2627 43.6103 51.076 44.4737 50.6793 45.3137C50.2827 46.1537 49.7693 46.947 49.0927 47.6937C47.9493 48.9537 46.6893 49.8637 45.266 50.447C43.866 51.0303 42.3493 51.3337 40.716 51.3337C38.336 51.3337 35.7927 50.7737 33.1093 49.6303C30.426 48.487 27.7427 46.947 25.0827 45.0103C22.3993 43.0503 19.856 40.8803 17.4293 38.477C15.026 36.0503 12.856 33.507 10.9193 30.847C9.00602 28.187 7.46602 25.527 6.34602 22.8903C5.22602 20.2303 4.66602 17.687 4.66602 15.2603C4.66602 13.6737 4.94602 12.157 5.50602 10.757C6.06602 9.33366 6.95268 8.02699 8.18935 6.86033C9.68268 5.39033 11.316 4.66699 13.0427 4.66699C13.696 4.66699 14.3493 4.80699 14.9327 5.08699C15.5393 5.36699 16.076 5.78699 16.496 6.39366L21.9093 14.0237C22.3293 14.607 22.6327 15.1437 22.8427 15.657C23.0527 16.147 23.1693 16.637 23.1693 17.0803C23.1693 17.6403 23.006 18.2003 22.6793 18.737C22.376 19.2737 21.9327 19.8337 21.3727 20.3937L19.5993 22.237C19.3427 22.4937 19.226 22.797 19.226 23.1703C19.226 23.357 19.2493 23.5203 19.296 23.707C19.366 23.8937 19.436 24.0337 19.4827 24.1737C19.9027 24.9437 20.626 25.947 21.6527 27.1603C22.7027 28.3737 23.8227 29.6103 25.036 30.847C26.296 32.0837 27.5093 33.227 28.746 34.277C29.9593 35.3037 30.9627 36.0037 31.756 36.4237C31.8727 36.4703 32.0127 36.5403 32.176 36.6103C32.3627 36.6803 32.5493 36.7037 32.7593 36.7037C33.156 36.7037 33.4593 36.5637 33.716 36.307L35.4893 34.557C36.0727 33.9737 36.6327 33.5303 37.1693 33.2503C37.706 32.9237 38.2427 32.7603 38.826 32.7603C39.2693 32.7603 39.736 32.8537 40.2493 33.0637C40.7627 33.2737 41.2993 33.577 41.8827 33.9737L49.606 39.457C50.2127 39.877 50.6327 40.367 50.8893 40.9503C51.1227 41.5337 51.2627 42.117 51.2627 42.7703Z" stroke="#EF4136" stroke-width="3.25" stroke-miterlimit="10"/>
</g>
</svg>
