<svg width="26" height="26" viewBox="0 0 26 26" fill="none" xmlns="http://www.w3.org/2000/svg">
<path d="M8.20013 19.2052L13.0001 14.4052L17.8001 19.2052L19.2052 17.8001L14.4052 13.0001L19.2052 8.20013L17.8001 6.79503L13.0001 11.595L8.20013 6.79503L6.79503 8.20013L11.595 13.0001L6.79503 17.8001L8.20013 19.2052ZM13.0024 25.6668C11.2505 25.6668 9.60374 25.3343 8.06223 24.6694C6.5207 24.0045 5.17979 23.1022 4.0395 21.9624C2.89919 20.8226 1.99644 19.4823 1.33126 17.9415C0.666085 16.4006 0.333496 14.7543 0.333496 13.0024C0.333496 11.2505 0.665941 9.60374 1.33083 8.06223C1.99572 6.5207 2.89805 5.17978 4.03783 4.0395C5.17763 2.89918 6.51795 1.99644 8.0588 1.33126C9.59962 0.666085 11.246 0.333496 12.9979 0.333496C14.7498 0.333496 16.3965 0.66594 17.938 1.33083C19.4796 1.99572 20.8205 2.89805 21.9608 4.03783C23.1011 5.17763 24.0038 6.51795 24.669 8.0588C25.3342 9.59962 25.6668 11.246 25.6668 12.9979C25.6668 14.7498 25.3343 16.3965 24.6694 17.938C24.0045 19.4796 23.1022 20.8205 21.9624 21.9608C20.8226 23.1011 19.4823 24.0038 17.9415 24.669C16.4006 25.3342 14.7543 25.6668 13.0024 25.6668ZM13.0001 23.6668C15.9779 23.6668 18.5001 22.6335 20.5668 20.5668C22.6335 18.5001 23.6668 15.9779 23.6668 13.0001C23.6668 10.0224 22.6335 7.50013 20.5668 5.43346C18.5001 3.3668 15.9779 2.33346 13.0001 2.33346C10.0224 2.33346 7.50013 3.3668 5.43346 5.43346C3.3668 7.50013 2.33346 10.0224 2.33346 13.0001C2.33346 15.9779 3.3668 18.5001 5.43346 20.5668C7.50013 22.6335 10.0224 23.6668 13.0001 23.6668Z" fill="#262626"/>
</svg>
