<svg width="76" height="76" viewBox="0 0 76 76" fill="none" xmlns="http://www.w3.org/2000/svg">
<g clip-path="url(#clip0_2223_309)">
<path d="M39.3638 41.4775C39.2234 41.4468 39.0786 41.4418 38.9365 41.4629C37.5091 41.2967 36.4324 40.0891 36.4299 38.6525C36.4299 38.3219 36.2985 38.0048 36.0647 37.771C35.8309 37.5372 35.5139 37.4059 35.1832 37.4059C34.8526 37.4059 34.5355 37.5372 34.3017 37.771C34.068 38.0048 33.9366 38.3219 33.9366 38.6525C33.9404 41.0513 35.5448 43.1526 37.8579 43.7875V45.0341C37.8579 45.3647 37.9892 45.6818 38.223 45.9156C38.4568 46.1494 38.7739 46.2807 39.1045 46.2807C39.4351 46.2807 39.7522 46.1494 39.986 45.9156C40.2198 45.6818 40.3511 45.3647 40.3511 45.0341V43.8629C43.0209 43.3041 44.8353 40.8176 44.5549 38.1046C44.2736 35.3917 41.9879 33.3301 39.2603 33.3294C37.6972 33.3294 36.4299 32.0621 36.4299 30.499C36.4299 28.9359 37.6972 27.6685 39.2603 27.6685C40.8234 27.6685 42.0908 28.9357 42.0908 30.499C42.0908 30.8296 42.2221 31.1467 42.4559 31.3805C42.6897 31.6143 43.0068 31.7456 43.3374 31.7456C43.668 31.7456 43.9851 31.6143 44.2189 31.3805C44.4527 31.1467 44.584 30.8296 44.584 30.499C44.5804 27.9802 42.8158 25.8077 40.3511 25.2878V24.1532C40.3511 23.8226 40.2198 23.5055 39.986 23.2717C39.7522 23.038 39.4351 22.9066 39.1045 22.9066C38.7739 22.9066 38.4568 23.038 38.223 23.2717C37.9892 23.5055 37.8579 23.8226 37.8579 24.1532V25.364C35.2855 26.0663 33.6298 28.5639 33.984 31.2069C34.3382 33.8499 36.5936 35.8225 39.2603 35.8221C40.8028 35.8221 42.061 37.0571 42.0889 38.5989C42.1176 40.1408 40.9051 41.4214 39.3638 41.4775Z" fill="#EF4136"/>
<path d="M21.1831 34.6716C21.1831 44.6555 29.2765 52.7488 39.2603 52.7488C49.2442 52.7488 57.3376 44.6555 57.3376 34.6716C57.3376 24.6877 49.2442 16.5944 39.2603 16.5944C29.2813 16.6053 21.1948 24.6926 21.1831 34.6716ZM39.2603 19.0876C47.8673 19.0876 54.8443 26.0646 54.8443 34.6716C54.8443 43.2786 47.8673 50.2556 39.2603 50.2556C30.6534 50.2556 23.6763 43.2786 23.6763 34.6716C23.6862 26.0688 30.6576 19.0974 39.2603 19.0876Z" fill="#EF4136"/>
<path d="M63.4829 55.8221L53.7175 60.4361C53.0551 59.204 52.0794 58.1683 50.8888 57.4337C49.6983 56.699 48.3351 56.2914 46.9367 56.2518L37.9218 56.0041C36.494 55.9632 35.0937 55.6017 33.8246 54.9462L32.9074 54.4709C30.5932 53.2647 28.0217 52.6362 25.412 52.6389C22.8024 52.6417 20.2322 53.2756 17.9205 54.4866L17.9777 52.4085C17.9823 52.2448 17.9545 52.0819 17.8961 51.9289C17.8376 51.776 17.7496 51.636 17.6371 51.5171C17.5246 51.3982 17.3897 51.3026 17.2402 51.2358C17.0907 51.169 16.9295 51.1323 16.7659 51.1278L6.88048 50.8558C6.71683 50.8513 6.5539 50.8791 6.40098 50.9376C6.24807 50.996 6.10817 51.0841 5.98929 51.1966C5.87041 51.3092 5.77488 51.444 5.70814 51.5935C5.64141 51.743 5.60478 51.9042 5.60036 52.0679L5.00323 73.7604C4.99867 73.9241 5.0264 74.0871 5.08485 74.2401C5.14329 74.3931 5.23131 74.5331 5.34386 74.652C5.45642 74.771 5.59131 74.8666 5.74083 74.9334C5.89034 75.0002 6.05156 75.0369 6.21526 75.0413L16.1005 75.3134H16.1346C16.4594 75.3135 16.7715 75.1869 17.0043 74.9604C17.2371 74.7339 17.3724 74.4255 17.3812 74.1008L17.4097 73.063L19.9778 71.6879C20.9854 71.1455 22.1645 71.0165 23.2656 71.3281L38.6012 75.6322C38.628 75.6402 38.6546 75.6463 38.6822 75.6525C39.7906 75.8843 40.9201 76.0007 42.0524 76C44.4508 76.0015 46.8211 75.4842 49.0008 74.4838C49.0544 74.4593 49.1061 74.4308 49.1554 74.3984L71.3907 60.0162C71.6575 59.8435 71.8484 59.5755 71.9243 59.2668C72.0001 58.9582 71.9553 58.6322 71.799 58.3555C70.1483 55.4264 66.4868 54.3107 63.4829 55.8221ZM7.52997 72.5833L8.05823 53.3824L15.451 53.5858L14.9227 72.7873L7.52997 72.5833ZM47.8777 72.257C45.1696 73.4791 42.1452 73.8168 39.2342 73.2219L23.94 68.9287C22.2191 68.4423 20.3765 68.6437 18.8013 69.4905L17.4889 70.1936L17.8401 57.4272C19.8819 56.0693 22.2506 55.284 24.6992 55.1534C27.1478 55.0228 29.5866 55.5516 31.7611 56.6847L32.6785 57.16C34.2816 57.9877 36.0501 58.4446 37.8535 58.4968L46.8691 58.7446C49.4013 58.8175 51.5518 60.6205 52.0656 63.1015L38.637 62.7308C37.9486 62.7121 37.3758 63.255 37.3563 63.9429C37.3472 64.2734 37.4698 64.594 37.6971 64.8342C37.9244 65.0744 38.2378 65.2144 38.5683 65.2236L53.3876 65.6314H53.4224C53.747 65.6312 54.0587 65.5044 54.2913 65.2779C54.5239 65.0515 54.6589 64.7432 54.6678 64.4187C54.6831 63.877 54.6428 63.3351 54.5473 62.8016L64.5634 58.0688C64.5733 58.0646 64.5829 58.0597 64.5927 58.0548C65.2864 57.7037 66.0709 57.5734 66.8408 57.6813C67.6108 57.7891 68.3293 58.13 68.8998 58.6581L47.8777 72.257ZM40.507 13.0895V1.24662C40.507 0.915995 40.3756 0.598913 40.1418 0.365126C39.908 0.13134 39.591 0 39.2603 0C38.9297 0 38.6126 0.13134 38.3788 0.365126C38.1451 0.598913 38.0137 0.915995 38.0137 1.24662V13.0895C38.0137 13.4201 38.1451 13.7372 38.3788 13.971C38.6126 14.2048 38.9297 14.3361 39.2603 14.3361C39.591 14.3361 39.908 14.2048 40.1418 13.971C40.3756 13.7372 40.507 13.4201 40.507 13.0895ZM49.8566 13.0895V7.47972C49.8566 7.14909 49.7253 6.83201 49.4915 6.59822C49.2577 6.36444 48.9406 6.2331 48.61 6.2331C48.2794 6.2331 47.9623 6.36444 47.7285 6.59822C47.4947 6.83201 47.3634 7.14909 47.3634 7.47972V13.0895C47.3634 13.4201 47.4947 13.7372 47.7285 13.971C47.9623 14.2048 48.2794 14.3361 48.61 14.3361C48.9406 14.3361 49.2577 14.2048 49.4915 13.971C49.7253 13.7372 49.8566 13.4201 49.8566 13.0895ZM31.1573 13.0895V7.47972C31.1573 7.14909 31.026 6.83201 30.7922 6.59822C30.5584 6.36444 30.2413 6.2331 29.9107 6.2331C29.5801 6.2331 29.263 6.36444 29.0292 6.59822C28.7954 6.83201 28.6641 7.14909 28.6641 7.47972V13.0895C28.6641 13.4201 28.7954 13.7372 29.0292 13.971C29.263 14.2048 29.5801 14.3361 29.9107 14.3361C30.2413 14.3361 30.5584 14.2048 30.7922 13.971C31.026 13.7372 31.1573 13.4201 31.1573 13.0895Z" fill="#EF4136"/>
</g>
<defs>
<clipPath id="clip0_2223_309">
<rect width="76" height="76" fill="white"/>
</clipPath>
</defs>
</svg>
