<svg width="56" height="56" viewBox="0 0 56 56" fill="none" xmlns="http://www.w3.org/2000/svg">
<g id="document-filled_svgrepo.com">
<path id="Vector" d="M18.666 30.3333H32.666M18.666 39.6667H37.3327M30.3327 7H12.666C12.1137 7 11.666 7.44772 11.666 8V48C11.666 48.5523 12.1137 49 12.666 49H43.3327C43.885 49 44.3327 48.5523 44.3327 48V21M30.3327 7H32.2518C32.517 7 32.7714 7.10536 32.9589 7.29289L44.0398 18.3738C44.2273 18.5613 44.3327 18.8157 44.3327 19.0809V21M30.3327 7V16.3333C30.3327 18.6667 32.666 21 34.9994 21H44.3327" stroke="#EF4136" stroke-width="3.25" stroke-linecap="round" stroke-linejoin="round"/>
</g>
</svg>
