<svg width="129" height="73" viewBox="0 0 129 73" fill="none" xmlns="http://www.w3.org/2000/svg">
<g id="Frame 1171275774">
<g id="Group">
<g id="Group_2">
<path id="Vector" d="M80.1887 16.5544V16.5562C80.1887 24.8019 73.2452 31.607 64.4828 31.607C55.7875 31.607 48.8213 24.8134 48.8213 16.5562C48.8213 8.28352 55.787 1.5 64.4828 1.5C73.2479 1.5 80.1987 8.28599 80.1887 16.5544Z" stroke="#EF4136" stroke-width="3"/>
<path id="Vector_2" d="M85.7199 45.4854V45.49V71.5002H43.2637V45.49C43.2637 40.8723 46.7341 37.3047 50.7264 37.3047H78.2846C82.2652 37.3047 85.7341 40.8708 85.7199 45.4854Z" stroke="#EF4136" stroke-width="3"/>
<path id="Vector_3" d="M98.5127 27.7477V27.7443C98.5127 21.2926 103.942 15.9717 110.764 15.9717C117.644 15.9717 123.06 21.2949 123.06 27.7443C123.06 34.1922 117.646 39.5063 110.764 39.5063C103.937 39.5063 98.4983 34.1874 98.5127 27.7477Z" stroke="#EF4136" stroke-width="3"/>
<path id="Vector_4" d="M127.5 50.9422V50.948V71.5H94.0449V50.948C94.0449 47.3763 96.717 44.6709 99.7474 44.6709H121.831C124.848 44.6709 127.514 47.3727 127.5 50.9422Z" stroke="#EF4136" stroke-width="3"/>
<path id="Vector_5" d="M30.5149 27.7443C30.5149 34.1922 25.0954 39.5063 18.2246 39.5063C11.3947 39.5063 5.96777 34.1941 5.96777 27.7443C5.96777 21.2929 11.3962 15.9717 18.2246 15.9717C25.0938 15.9717 30.5149 21.2949 30.5149 27.7443Z" stroke="#EF4136" stroke-width="3"/>
<path id="Vector_6" d="M34.9547 50.9441V50.948V71.5H1.5V50.948C1.5 47.3716 4.16534 44.6709 7.18012 44.6709H29.2854C32.2959 44.6709 34.9639 47.3721 34.9547 50.9441Z" stroke="#EF4136" stroke-width="3"/>
</g>
</g>
</g>
</svg>
