<svg width="116" height="96" viewBox="0 0 116 96" fill="none" xmlns="http://www.w3.org/2000/svg">
<path d="M29.1999 0C25.252 0 21.9999 3.25207 21.9999 7.2V9.94219C17.8715 11.0158 14.7999 14.7397 14.7999 19.2V31.2H29.1999V36H14.7999V51.2391C9.2151 53.2215 5.1999 58.5432 5.1999 64.8C5.1999 71.0568 9.2151 76.3785 14.7999 78.3609V91.2H0.399902V96H110.8H115.6V93.6V91.2H108.4V45.6H105.845L103.445 9.6H93.9999L91.9186 40.8H98.7999V45.6H53.1999V7.2C53.1999 3.25207 49.9478 0 45.9999 0H29.1999ZM29.1999 4.8H45.9999C47.356 4.8 48.3999 5.84393 48.3999 7.2V45.6H38.7999V91.2H33.9999V19.2C33.9999 14.7397 30.9283 11.0158 26.7999 9.94219V7.2C26.7999 5.84393 27.8438 4.8 29.1999 4.8ZM19.5999 55.2C24.8943 55.2 29.1999 59.5056 29.1999 64.8C29.1999 70.0944 24.8943 74.4 19.5999 74.4C14.3055 74.4 9.9999 70.0944 9.9999 64.8C9.9999 59.5056 14.3055 55.2 19.5999 55.2ZM45.9999 55.2H55.5999V60H45.9999V55.2ZM60.3999 55.2H69.9999V60H60.3999V55.2ZM77.1999 55.2H86.7999V60H77.1999V55.2ZM91.5999 55.2H101.2V60H91.5999V55.2ZM45.9999 67.2H55.5999V72H45.9999V67.2ZM60.3999 67.2H69.9999V72H60.3999V67.2ZM77.1999 67.2H86.7999V72H77.1999V67.2ZM91.5999 67.2H101.2V72H91.5999V67.2Z" fill="#EF4136"/>
<path d="M29.1999 0C25.252 0 21.9999 3.25207 21.9999 7.2V9.94219C17.8715 11.0158 14.7999 14.7397 14.7999 19.2V31.2H29.1999V36H14.7999V51.2391C9.2151 53.2215 5.1999 58.5432 5.1999 64.8C5.1999 71.0568 9.2151 76.3785 14.7999 78.3609V91.2H0.399902V96H110.8H115.6V93.6V91.2H108.4V45.6H105.845L103.445 9.6H93.9999L91.9186 40.8H98.7999V45.6H53.1999V7.2C53.1999 3.25207 49.9478 0 45.9999 0H29.1999ZM29.1999 4.8H45.9999C47.356 4.8 48.3999 5.84393 48.3999 7.2V45.6H38.7999V91.2H33.9999V19.2C33.9999 14.7397 30.9283 11.0158 26.7999 9.94219V7.2C26.7999 5.84393 27.8438 4.8 29.1999 4.8ZM19.5999 55.2C24.8943 55.2 29.1999 59.5056 29.1999 64.8C29.1999 70.0944 24.8943 74.4 19.5999 74.4C14.3055 74.4 9.9999 70.0944 9.9999 64.8C9.9999 59.5056 14.3055 55.2 19.5999 55.2ZM45.9999 55.2H55.5999V60H45.9999V55.2ZM60.3999 55.2H69.9999V60H60.3999V55.2ZM77.1999 55.2H86.7999V60H77.1999V55.2ZM91.5999 55.2H101.2V60H91.5999V55.2ZM45.9999 67.2H55.5999V72H45.9999V67.2ZM60.3999 67.2H69.9999V72H60.3999V67.2ZM77.1999 67.2H86.7999V72H77.1999V67.2ZM91.5999 67.2H101.2V72H91.5999V67.2Z" fill="#2A2522"/>
<path d="M29.1999 0C25.252 0 21.9999 3.25207 21.9999 7.2V9.94219C17.8715 11.0158 14.7999 14.7397 14.7999 19.2V31.2H29.1999V36H14.7999V51.2391C9.2151 53.2215 5.1999 58.5432 5.1999 64.8C5.1999 71.0568 9.2151 76.3785 14.7999 78.3609V91.2H0.399902V96H110.8H115.6V93.6V91.2H108.4V45.6H105.845L103.445 9.6H93.9999L91.9186 40.8H98.7999V45.6H53.1999V7.2C53.1999 3.25207 49.9478 0 45.9999 0H29.1999ZM29.1999 4.8H45.9999C47.356 4.8 48.3999 5.84393 48.3999 7.2V45.6H38.7999V91.2H33.9999V19.2C33.9999 14.7397 30.9283 11.0158 26.7999 9.94219V7.2C26.7999 5.84393 27.8438 4.8 29.1999 4.8ZM19.5999 55.2C24.8943 55.2 29.1999 59.5056 29.1999 64.8C29.1999 70.0944 24.8943 74.4 19.5999 74.4C14.3055 74.4 9.9999 70.0944 9.9999 64.8C9.9999 59.5056 14.3055 55.2 19.5999 55.2ZM45.9999 55.2H55.5999V60H45.9999V55.2ZM60.3999 55.2H69.9999V60H60.3999V55.2ZM77.1999 55.2H86.7999V60H77.1999V55.2ZM91.5999 55.2H101.2V60H91.5999V55.2ZM45.9999 67.2H55.5999V72H45.9999V67.2ZM60.3999 67.2H69.9999V72H60.3999V67.2ZM77.1999 67.2H86.7999V72H77.1999V67.2ZM91.5999 67.2H101.2V72H91.5999V67.2Z" fill="#F1F2F2"/>
<path d="M29.1999 0C25.252 0 21.9999 3.25207 21.9999 7.2V9.94219C17.8715 11.0158 14.7999 14.7397 14.7999 19.2V31.2H29.1999V36H14.7999V51.2391C9.2151 53.2215 5.1999 58.5432 5.1999 64.8C5.1999 71.0568 9.2151 76.3785 14.7999 78.3609V91.2H0.399902V96H110.8H115.6V93.6V91.2H108.4V45.6H105.845L103.445 9.6H93.9999L91.9186 40.8H98.7999V45.6H53.1999V7.2C53.1999 3.25207 49.9478 0 45.9999 0H29.1999ZM29.1999 4.8H45.9999C47.356 4.8 48.3999 5.84393 48.3999 7.2V45.6H38.7999V91.2H33.9999V19.2C33.9999 14.7397 30.9283 11.0158 26.7999 9.94219V7.2C26.7999 5.84393 27.8438 4.8 29.1999 4.8ZM19.5999 55.2C24.8943 55.2 29.1999 59.5056 29.1999 64.8C29.1999 70.0944 24.8943 74.4 19.5999 74.4C14.3055 74.4 9.9999 70.0944 9.9999 64.8C9.9999 59.5056 14.3055 55.2 19.5999 55.2ZM45.9999 55.2H55.5999V60H45.9999V55.2ZM60.3999 55.2H69.9999V60H60.3999V55.2ZM77.1999 55.2H86.7999V60H77.1999V55.2ZM91.5999 55.2H101.2V60H91.5999V55.2ZM45.9999 67.2H55.5999V72H45.9999V67.2ZM60.3999 67.2H69.9999V72H60.3999V67.2ZM77.1999 67.2H86.7999V72H77.1999V67.2ZM91.5999 67.2H101.2V72H91.5999V67.2Z" fill="#FCFCFC"/>
</svg>
