<svg width="69" height="69" viewBox="0 0 69 69" fill="none" xmlns="http://www.w3.org/2000/svg">
<path d="M51.437 26.8965L59.1401 33.9366C60.0709 34.7994 59.8053 35.4645 58.543 35.4645H52.7651V53.8585C52.7651 55.1207 51.7026 56.2491 50.4404 56.2491H40.4125V43.3652C40.4125 42.103 39.2841 40.9746 38.0219 40.9746H31.7128C30.4505 40.9746 29.3221 42.103 29.3221 43.3652V56.2491H19.2943C18.032 56.2491 16.9036 55.1207 16.9036 53.8585V35.4645H11.1916C9.92938 35.4645 9.66376 34.7994 10.5945 33.9366L33.1068 13.4835C34.0375 12.6207 35.6313 12.6207 36.6258 13.4835L41.7385 18.065V14.4121C41.7385 13.1499 42.8669 12.0215 44.1291 12.0215H49.1101C50.3724 12.0215 51.4349 13.1499 51.4349 14.4121L51.437 26.8965Z" fill="#EF4136" fill-opacity="0.5"/>
</svg>
