<svg width="51" height="51" viewBox="0 0 51 51" fill="none" xmlns="http://www.w3.org/2000/svg">
<path d="M48.8695 9.91641H42.8913V8.28594C42.8913 7.66836 42.5424 7.10391 41.99 6.82754L36.251 3.95801C35.7626 1.77266 33.8088 0.133789 31.4782 0.133789H5.39131C2.69424 0.133789 0.5 2.32803 0.5 5.0251V18.0686C0.5 20.1941 1.86318 22.0063 3.76084 22.6794V37.3707C1.86318 38.0438 0.5 39.8561 0.5 41.9816V45.2425C0.5 47.9395 2.69424 50.1338 5.39131 50.1338H21.6956C24.3927 50.1338 26.5869 47.9395 26.5869 45.2425V41.9816C26.5869 39.2846 24.3927 37.0903 21.6956 37.0903H16.8043V29.4816H21.6956C22.596 29.4816 23.3261 28.7517 23.3261 27.8512V22.9599H31.4782C33.8088 22.9599 35.7626 21.321 36.251 19.1355L41.99 16.266C42.5424 15.9898 42.8913 15.4254 42.8913 14.8077V13.1772H48.8695C49.7699 13.1772 50.5 12.4473 50.5 11.5468C50.5 10.6463 49.77 9.91641 48.8695 9.91641ZM13.5435 37.0903H7.02178V22.9599H13.5436L13.5435 37.0903ZM20.0652 26.2207H16.8044V22.9599H20.0652V26.2207ZM24.9565 16.4382H11.9131C11.0127 16.4382 10.2826 15.7082 10.2826 14.8077C10.2826 13.9072 11.0126 13.1772 11.9131 13.1772H24.9565C25.8569 13.1772 26.587 13.9072 26.587 14.8077C26.587 15.7082 25.8569 16.4382 24.9565 16.4382ZM24.9565 9.91641H11.9131C11.0127 9.91641 10.2826 9.18643 10.2826 8.28594C10.2826 7.38545 11.0126 6.65547 11.9131 6.65547H24.9565C25.8569 6.65547 26.587 7.38545 26.587 8.28594C26.587 9.18643 25.8569 9.91641 24.9565 9.91641ZM39.6305 13.8L36.3696 15.4305V7.66328L39.6305 9.29375V13.8Z" fill="#EF4136" fill-opacity="0.5"/>
</svg>
