<svg width="72" height="72" viewBox="0 0 72 72" fill="none" xmlns="http://www.w3.org/2000/svg">
<g clip-path="url(#clip0_560_1128)">
<path d="M71.5095 16.0818L65.9218 59.8831H47.0486L41.4836 15.8631H64.5245L69.0784 0.133789L71.66 0.911949L67.2907 16.0491L71.5095 16.0818ZM38.8154 41.4231C38.8154 41.4231 39.5211 35.7431 29.7345 35.7431H14.1486C4.37614 35.7431 5.06768 41.4231 5.06768 41.4231H38.8154ZM5.06768 54.2031C5.06768 54.2031 4.37614 59.8831 14.1486 59.8831H29.7359C39.5226 59.8831 38.8168 54.2031 38.8168 54.2031H5.06768ZM37.3514 51.3631C38.9531 51.3631 40.2468 49.7812 40.2468 47.8145C40.2468 45.8365 38.9531 44.2631 37.3514 44.2631H6.3968C4.80214 44.2631 3.5 45.8365 3.5 47.8145C3.5 49.7812 4.80214 51.3631 6.3968 51.3631H37.3514Z" fill="#EF4136" fill-opacity="0.5"/>
</g>
<defs>
<clipPath id="clip0_560_1128">
<rect width="71" height="71" fill="white" transform="translate(0.5 0.133789)"/>
</clipPath>
</defs>
</svg>
