<svg width="49" height="57" viewBox="0 0 49 57" fill="none" xmlns="http://www.w3.org/2000/svg">
<path d="M42.8609 12.4964V3.47213C42.8609 1.62884 41.3658 0.133789 39.5227 0.133789H3.74806C1.90477 0.133789 0.410156 1.62884 0.410156 3.47213V12.4964C0.410156 14.3397 1.90487 15.8348 3.74806 15.8348H39.5227C41.3658 15.8348 42.8609 14.3399 42.8609 12.4964Z" fill="#EF4136" fill-opacity="0.5"/>
<path d="M17.4844 51.7902C17.4844 54.1895 19.4295 56.1339 21.8281 56.1339H22.118C24.5166 56.1339 26.4614 54.1895 26.4614 51.7902V36.1475H17.4844V51.7902Z" fill="#EF4136" fill-opacity="0.5"/>
<path d="M45.221 6.55859V11.8077V15.3004C45.221 16.287 44.6196 17.1774 43.7021 17.5462L43.6503 17.5667L23.9288 27.0463L23.9308 27.0504C21.798 27.9565 20.4023 30.0445 20.4023 32.37V34.1845H23.7669V32.37C23.7669 31.381 24.3677 30.4921 25.285 30.1234L25.3375 30.102L45.0582 20.6233L45.0558 20.6192C47.1908 19.7131 48.5855 17.625 48.5855 15.3004V11.8077C48.5847 9.47716 47.2055 7.47537 45.221 6.55859Z" fill="#EF4136" fill-opacity="0.5"/>
</svg>
