<svg width="65" height="65" viewBox="0 0 65 65" fill="none" xmlns="http://www.w3.org/2000/svg">
<path d="M5.83203 33.4671C5.83203 32.7309 6.42899 32.1338 7.16536 32.1338H20.4987C21.2351 32.1338 21.832 32.7309 21.832 33.4671V48.1338C21.832 52.5522 18.2503 56.1338 13.832 56.1338C9.41376 56.1338 5.83203 52.5522 5.83203 48.1338V33.4671Z" fill="#EF4136" fill-opacity="0.5"/>
<path d="M8.5 28.1335H19.1667V16.133C19.1667 14.1506 17.0805 12.8613 15.3074 13.7479L9.97411 16.4145C9.07067 16.8662 8.5 17.7896 8.5 18.7997V28.1335Z" fill="#EF4136" fill-opacity="0.5"/>
<path d="M29.832 28.1335C29.832 20.0333 36.3984 13.4668 44.4987 13.4668C52.599 13.4668 59.1654 20.0333 59.1654 28.1335C59.1654 36.2337 52.599 42.8001 44.4987 42.8001C36.3984 42.8001 29.832 36.2337 29.832 28.1335Z" fill="#EF4136" fill-opacity="0.5"/>
<path d="M42.5 47.3612C43.1571 47.4311 43.8243 47.4671 44.5 47.4671C45.1757 47.4671 45.8429 47.4311 46.5 47.3612V52.1337H52.5C53.6045 52.1337 54.5 53.0292 54.5 54.1337C54.5 55.2383 53.6045 56.1337 52.5 56.1337H36.5C35.3955 56.1337 34.5 55.2383 34.5 54.1337C34.5 53.0292 35.3955 52.1337 36.5 52.1337H42.5V47.3612Z" fill="#EF4136" fill-opacity="0.5"/>
</svg>
