<svg width="51" height="51" viewBox="0 0 51 51" fill="none" xmlns="http://www.w3.org/2000/svg">
<path d="M48.7996 42.0186L35.0007 19.2158C34.9519 19.1377 35.0398 8.92285 35.0398 8.92285H16.0652C16.0652 8.92285 16.0457 19.1377 15.9968 19.2158L2.198 42.0186C1.36793 43.3857 1.36793 44.958 2.18824 46.3154C3.17457 47.9561 5.18629 48.9814 7.42261 48.9814H43.5652C45.8113 48.9814 47.8132 47.9658 48.7996 46.3154C49.6297 44.9482 49.6297 43.3857 48.7996 42.0186Z" fill="#EF4136" fill-opacity="0.5"/>
<path d="M15.3711 5.10449H35.625C36.7285 5.10449 37.6172 4.25488 37.6172 3.2002C37.6172 2.14551 36.7285 1.2959 35.625 1.2959H15.3711C14.2676 1.2959 13.3789 2.14551 13.3789 3.2002C13.3789 4.25488 14.2676 5.10449 15.3711 5.10449Z" fill="#EF4136" fill-opacity="0.5"/>
</svg>
