<svg width="59" height="59" viewBox="0 0 59 59" fill="none" xmlns="http://www.w3.org/2000/svg">
<path d="M40.3311 3.19238C39.5042 3.19238 38.6772 3.3068 38.1561 3.48012C37.9296 3.55828 37.7936 3.64324 37.7257 3.68969V9.7627H42.9366V8.62988L41.2374 6.93066L42.9366 5.23145V3.68969C42.8686 3.64324 42.7327 3.55828 42.5061 3.48012C41.985 3.3068 41.1468 3.19238 40.3311 3.19238ZM34.9616 5.85676C31.4272 5.83863 28.3913 6.62707 25.7971 8.04082C22.3307 9.92695 19.6913 12.8893 17.5616 16.3783C14.9788 20.6264 13.1323 25.6674 11.5271 30.7311C11.5905 30.7311 11.6551 30.7424 11.7197 30.7424C11.9995 30.765 12.2714 30.8104 12.5546 30.901C12.8944 31.0029 13.2116 31.1389 13.4948 31.3201C15.0921 26.3244 16.8819 21.4307 19.3061 17.4432C21.2999 14.158 23.7128 11.4959 26.7714 9.8318C29.2409 8.48941 32.1409 7.76781 35.6866 7.90941V5.87262C35.4374 5.86129 35.1995 5.85789 34.9616 5.85676ZM35.9132 11.8018V13.3877H44.7491V11.8018H35.9132ZM33.6589 15.4268C32.4468 17.3299 30.2944 18.576 28.4932 19.9693C26.5221 21.51 25.0382 23.0166 25.0382 25.2822C25.0382 32.4076 26.3635 37.2334 27.7003 41.0283C28.8897 44.3928 30.1471 46.9643 30.419 49.6377H50.2432C50.5151 46.9643 51.7725 44.3928 52.962 41.0283C54.2987 37.2334 55.6241 32.4076 55.6241 25.2822C55.6241 23.0166 54.1401 21.51 52.169 19.9693C50.3678 18.576 48.2155 17.3299 47.0034 15.4268H33.6589ZM11.4002 32.7475C11.0774 32.7475 10.8146 32.8381 10.5257 33.0193C10.0873 33.2912 9.61831 33.8123 9.19238 34.5373C8.91484 35.0018 8.66335 35.5342 8.43112 36.1119C8.73472 36.0213 9.04511 35.9646 9.36003 35.942C9.89359 35.8967 10.4419 35.942 10.9981 36.1119C11.8862 36.3838 12.5885 36.8822 13.1436 37.5393C13.2682 36.9275 13.3589 36.3385 13.3815 35.7834C13.4155 34.9451 13.3135 34.2541 13.087 33.7783C12.8717 33.3139 12.5885 33.042 11.9655 32.8494C11.8171 32.8041 11.6721 32.7814 11.5418 32.7588C11.4931 32.7588 11.4455 32.7475 11.3991 32.7475H11.4002ZM9.71234 37.9584C9.63304 37.9584 9.55374 37.9584 9.47558 37.9697C8.52968 38.0604 7.57245 38.6607 6.63675 39.6576C5.39066 40.9943 4.35413 42.9428 3.88515 44.5174C3.41503 46.092 3.21679 48.2896 3.53171 50.0795C3.84663 51.8693 4.57277 53.1154 5.82226 53.4893C7.06948 53.8518 8.35409 53.2174 9.59905 51.892C10.8451 50.5553 11.8749 48.6068 12.3507 47.0322C12.8151 45.4689 12.9964 43.26 12.6678 41.4588C12.3393 39.6576 11.6019 38.4229 10.4169 38.0603C10.1836 37.9924 9.94796 37.9584 9.71234 37.9584ZM29.4561 51.6768C28.7991 51.6768 28.4479 51.8807 28.176 52.1865C27.9155 52.4811 27.7569 52.9229 27.7569 53.376C27.7569 53.8291 27.9155 54.2709 28.176 54.5654C28.4479 54.8713 28.7991 55.0752 29.4561 55.0752H51.2061C51.8632 55.0752 52.2143 54.8713 52.4862 54.5654C52.7467 54.2709 52.9053 53.8291 52.9053 53.376C52.9053 52.9229 52.7467 52.4811 52.4862 52.1865C52.2143 51.8807 51.8632 51.6768 51.2061 51.6768H29.4561Z" fill="#EF4136" fill-opacity="0.5"/>
</svg>
