<svg width="55" height="46" viewBox="0 0 55 46" fill="none" xmlns="http://www.w3.org/2000/svg">
<path d="M14.06 0.599976C12.2176 0.599976 10.7 2.11761 10.7 3.95998V5.23966C8.77341 5.74068 7.34 7.47853 7.34 9.55998V15.16H14.06V17.4H7.34V24.5115C4.73376 25.4367 2.86 27.9201 2.86 30.84C2.86 33.7598 4.73376 36.2433 7.34 37.1684V43.16H0.619995V45.4H52.14H54.38V44.28V43.16H51.02V21.88H49.8278L48.7078 5.07998H44.3L43.3287 19.64H46.54V21.88H25.26V3.95998C25.26 2.11761 23.7424 0.599976 21.9 0.599976H14.06ZM14.06 2.83998H21.9C22.5328 2.83998 23.02 3.32714 23.02 3.95998V21.88H18.54V43.16H16.3V9.55998C16.3 7.47853 14.8666 5.74068 12.94 5.23966V3.95998C12.94 3.32714 13.4272 2.83998 14.06 2.83998ZM9.58 26.36C12.0507 26.36 14.06 28.3693 14.06 30.84C14.06 33.3107 12.0507 35.32 9.58 35.32C7.10927 35.32 5.1 33.3107 5.1 30.84C5.1 28.3693 7.10927 26.36 9.58 26.36ZM21.9 26.36H26.38V28.6H21.9V26.36ZM28.62 26.36H33.1V28.6H28.62V26.36ZM36.46 26.36H40.94V28.6H36.46V26.36ZM43.18 26.36H47.66V28.6H43.18V26.36ZM21.9 31.96H26.38V34.2H21.9V31.96ZM28.62 31.96H33.1V34.2H28.62V31.96ZM36.46 31.96H40.94V34.2H36.46V31.96ZM43.18 31.96H47.66V34.2H43.18V31.96Z" fill="#808080"/>
</svg>
