<svg width="57" height="56" viewBox="0 0 57 56" fill="none" xmlns="http://www.w3.org/2000/svg">
<path fill-rule="evenodd" clip-rule="evenodd" d="M31.8166 3.18731L35.151 5.68325C36.063 6.36586 37.0228 6.7152 38.1602 6.77853L42.3188 7.00986C44.8089 7.14832 46.8314 8.84528 47.4001 11.2736L48.3501 15.3289C48.6099 16.438 49.1207 17.3226 49.9513 18.1021L52.9883 20.9525C54.8068 22.6592 55.2652 25.2592 54.1401 27.485L52.2612 31.2021C51.7473 32.2187 51.5699 33.2246 51.7051 34.3557L52.1995 38.4914C52.4955 40.9677 51.1754 43.254 48.8829 44.2359L45.0541 45.8756C44.007 46.324 43.2245 46.9806 42.6011 47.9339L40.3214 51.4197C38.9564 53.5069 36.4755 54.4098 34.0883 53.6884L30.1014 52.4835C29.011 52.1539 27.9896 52.1539 26.8991 52.4835L22.9121 53.6884C20.5249 54.4098 18.0441 53.5069 16.6791 51.4197L14.3994 47.9339C13.7758 46.9806 12.9934 46.324 11.9463 45.8756L8.11732 44.2356C5.82482 43.2538 4.50477 40.9675 4.80074 38.4911L5.29511 34.3555C5.4303 33.2244 5.2529 32.2185 4.73905 31.2019L2.8601 27.4847C1.73507 25.2591 2.19346 22.6591 4.01193 20.9523L7.04894 18.1019C7.87954 17.3224 8.39021 16.4378 8.64997 15.3287L9.60001 11.2734C10.1688 8.84517 12.1912 7.14821 14.6813 7.00964L18.8399 6.77831C19.9773 6.71509 20.9372 6.36564 21.8491 5.68303L25.1835 3.18709C27.18 1.69281 29.8201 1.69281 31.8166 3.18731ZM26.373 29.4284L22.7544 25.8099C21.8165 24.872 20.2952 24.872 19.3575 25.8099C18.4196 26.7478 18.4196 28.269 19.3575 29.2069L24.6798 34.529C25.6176 35.4668 27.1389 35.4669 28.0767 34.529C31.2847 31.321 34.4564 28.0769 37.6496 24.8542C38.5807 23.9144 38.5777 22.398 37.6392 21.4647C36.7005 20.5312 35.1798 20.5339 34.2477 21.4752L26.373 29.4284ZM28.5 10.1122C23.5605 10.1122 19.0885 12.1144 15.8514 15.3514C12.6144 18.5886 10.6122 23.0605 10.6122 28C10.6122 32.9395 12.6144 37.4115 15.8514 40.6486C19.0885 43.8856 23.5605 45.8879 28.5 45.8879C33.4395 45.8879 37.9115 43.8856 41.1486 40.6486C44.3856 37.4115 46.3878 32.9395 46.3878 28C46.3878 23.0605 44.3856 18.5885 41.1486 15.3514C37.9115 12.1144 33.4395 10.1122 28.5 10.1122ZM39.9112 16.5888C36.9909 13.6685 32.9564 11.8622 28.5 11.8622C24.0436 11.8622 20.0091 13.6685 17.0888 16.5888C14.1685 19.5091 12.3622 23.5436 12.3622 28C12.3622 32.4564 14.1685 36.4909 17.0888 39.4112C20.0091 42.3315 24.0436 44.1379 28.5 44.1379C32.9564 44.1379 36.9909 42.3315 39.9112 39.4113C42.8315 36.491 44.6377 32.4565 44.6377 28.0001C44.6379 23.5436 42.8315 19.5091 39.9112 16.5888Z" fill="#808080"/>
</svg>
