<svg width="47" height="50" viewBox="0 0 47 50" fill="none" xmlns="http://www.w3.org/2000/svg">
<path d="M15.135 33.33C13.7427 34.4188 12.6167 35.8104 11.8425 37.3993C11.0683 38.9882 10.6661 40.7325 10.6667 42.5V46H3.66669C1.73002 46 0.166687 44.4367 0.166687 42.5V40.1667C0.166687 35.6517 3.81835 32 8.33335 32H10.6667C12.3234 32 13.8517 32.49 15.135 33.33Z" fill="#808080"/>
<path d="M37.5 32C40.3995 32 42.75 29.6495 42.75 26.75C42.75 23.8505 40.3995 21.5 37.5 21.5C34.6005 21.5 32.25 23.8505 32.25 26.75C32.25 29.6495 34.6005 32 37.5 32Z" fill="#808080"/>
<path d="M9.5 32C12.3995 32 14.75 29.6495 14.75 26.75C14.75 23.8505 12.3995 21.5 9.5 21.5C6.6005 21.5 4.25 23.8505 4.25 26.75C4.25 29.6495 6.6005 32 9.5 32Z" fill="#808080"/>
<path d="M46.8334 40.1667V42.5C46.8334 44.4367 45.2701 46 43.3334 46H36.3334V42.5C36.3334 38.7783 34.5834 35.465 31.8651 33.33C33.1484 32.49 34.6767 32 36.3334 32H38.6667C43.1817 32 46.8334 35.6517 46.8334 40.1667Z" fill="#808080"/>
<path d="M23.5 33.1667C27.0439 33.1667 29.9167 30.2939 29.9167 26.75C29.9167 23.2062 27.0439 20.3334 23.5 20.3334C19.9562 20.3334 17.0834 23.2062 17.0834 26.75C17.0834 30.2939 19.9562 33.1667 23.5 33.1667Z" fill="#808080"/>
<path d="M24.6667 33.1667H22.3333C17.1872 33.1667 13 37.3539 13 42.5V46C13 47.9297 14.5703 49.5 16.5 49.5H30.5C32.4297 49.5 34 47.9297 34 46V42.5C34 37.3539 29.8128 33.1667 24.6667 33.1667ZM40.4167 16.4647L37.6015 17.4657C37.4168 17.5314 37.2189 17.551 37.0249 17.523C36.8309 17.495 36.6467 17.4201 36.4881 17.3049C36.3296 17.1896 36.2015 17.0375 36.115 16.8616C36.0284 16.6858 35.9861 16.4915 35.9915 16.2955L36.0732 13.3089L34.2508 10.9405C34.1314 10.7851 34.0517 10.603 34.0184 10.4098C33.9851 10.2167 33.9994 10.0184 34.0599 9.83195C34.1204 9.64555 34.2254 9.47668 34.3658 9.33992C34.5062 9.20317 34.6778 9.10264 34.8657 9.04702L37.7322 8.20235L39.4215 5.73719C39.5323 5.57549 39.6808 5.44322 39.8542 5.35183C40.0276 5.26044 40.2207 5.21268 40.4167 5.21268C40.6127 5.21268 40.8057 5.26044 40.9791 5.35183C41.1525 5.44322 41.3011 5.57549 41.4118 5.73719L43.1012 8.20235L45.9677 9.04702C46.7808 9.28619 47.0993 10.2685 46.5825 10.9405L44.7602 13.3089L44.8418 16.2955C44.847 16.4914 44.8045 16.6855 44.7178 16.8612C44.6312 17.037 44.5032 17.189 44.3447 17.3042C44.1862 17.4193 44.0021 17.4942 43.8082 17.5224C43.6143 17.5505 43.4165 17.5311 43.2318 17.4657L40.4167 16.4647ZM6.58334 16.4647L3.76817 17.4657C3.58349 17.5314 3.38559 17.551 3.1916 17.523C2.9976 17.495 2.81336 17.4201 2.6548 17.3049C2.49625 17.1896 2.36817 17.0375 2.28163 16.8616C2.1951 16.6858 2.15272 16.4915 2.15817 16.2955L2.23984 13.3089L0.417507 10.9405C0.298107 10.7851 0.21833 10.603 0.185064 10.4098C0.151798 10.2167 0.166043 10.0184 0.226569 9.83195C0.287096 9.64555 0.392084 9.47668 0.532469 9.33992C0.672853 9.20317 0.844416 9.10264 1.03234 9.04702L3.89884 8.20235L5.58817 5.73719C5.69896 5.57549 5.84748 5.44322 6.02088 5.35183C6.19427 5.26044 6.38733 5.21268 6.58334 5.21268C6.77935 5.21268 6.97241 5.26044 7.14581 5.35183C7.3192 5.44322 7.46772 5.57549 7.57851 5.73719L9.26784 8.20235L12.1343 9.04702C12.9475 9.28619 13.266 10.2685 12.7492 10.9405L10.9268 13.3089L11.0085 16.2955C11.0137 16.4914 10.9711 16.6855 10.8845 16.8612C10.7979 17.037 10.6698 17.189 10.5114 17.3042C10.3529 17.4193 10.1688 17.4942 9.97488 17.5224C9.781 17.5505 9.58319 17.5311 9.39851 17.4657L6.58334 16.4647ZM23.5 13.8397L20.1622 15.0262C19.9432 15.104 19.7087 15.1273 19.4787 15.094C19.2487 15.0608 19.0303 14.972 18.8424 14.8354C18.6544 14.6988 18.5026 14.5185 18.4 14.3101C18.2974 14.1016 18.2471 13.8713 18.2535 13.639L18.3503 10.0982L16.1897 7.29002C16.0481 7.10576 15.9536 6.88982 15.9142 6.66085C15.8748 6.43187 15.8917 6.19675 15.9635 5.97578C16.0353 5.7548 16.1597 5.55462 16.3262 5.39252C16.4926 5.23042 16.696 5.11127 16.9188 5.04535L20.3173 4.04319L22.3205 1.12069C22.4519 0.928911 22.628 0.772036 22.8336 0.663641C23.0392 0.555246 23.2681 0.498596 23.5006 0.498596C23.733 0.498596 23.962 0.555246 24.1676 0.663641C24.3732 0.772036 24.5493 0.928911 24.6807 1.12069L26.6838 4.04319L30.0823 5.04535C30.3051 5.11127 30.5085 5.23042 30.675 5.39252C30.8414 5.55462 30.9659 5.7548 31.0377 5.97578C31.1095 6.19675 31.1264 6.43187 31.087 6.66085C31.0476 6.88982 30.953 7.10576 30.8115 7.29002L28.6508 10.0982L28.7477 13.639C28.7541 13.8713 28.7038 14.1016 28.6012 14.3101C28.4986 14.5185 28.3467 14.6988 28.1588 14.8354C27.9708 14.972 27.7524 15.0608 27.5225 15.094C27.2925 15.1273 27.0579 15.104 26.839 15.0262L23.5 13.8397Z" fill="#808080"/>
</svg>
