<svg width="56" height="56" viewBox="0 0 56 56" fill="none" xmlns="http://www.w3.org/2000/svg">
<g id="office-building_svgrepo.com">
<path id="Vector" d="M10.5 7V45.5H31.5V7H10.5ZM8.75 3.5H33.25C33.7141 3.5 34.1593 3.68437 34.4874 4.01256C34.8156 4.34075 35 4.78587 35 5.25V47.25C35 47.7141 34.8156 48.1592 34.4874 48.4874C34.1593 48.8156 33.7141 49 33.25 49H8.75C8.28587 49 7.84075 48.8156 7.51256 48.4874C7.18437 48.1592 7 47.7141 7 47.25V5.25C7 4.78587 7.18437 4.34075 7.51256 4.01256C7.84075 3.68437 8.28587 3.5 8.75 3.5Z" fill="#EF4136"/>
<path id="Vector_2" d="M14 14H28V17.5H14V14ZM14 24.5H28V28H14V24.5ZM14 35H28V38.5H14V35ZM35 28H42V31.5H35V28ZM35 35H42V38.5H35V35ZM3.5 45.5H52.5V49H3.5V45.5Z" fill="#EF4136"/>
<path id="Vector_3" d="M35 21V45.5H45.5V21H35ZM33.25 17.5H47.25C47.7141 17.5 48.1593 17.6844 48.4874 18.0126C48.8156 18.3408 49 18.7859 49 19.25V47.25C49 47.7141 48.8156 48.1593 48.4874 48.4874C48.1593 48.8156 47.7141 49 47.25 49H33.25C32.7859 49 32.3408 48.8156 32.0126 48.4874C31.6844 48.1593 31.5 47.7141 31.5 47.25V19.25C31.5 18.7859 31.6844 18.3408 32.0126 18.0126C32.3408 17.6844 32.7859 17.5 33.25 17.5Z" fill="#EF4136"/>
</g>
</svg>
