<svg width="61" height="61" viewBox="0 0 61 61" fill="none" xmlns="http://www.w3.org/2000/svg">
<g id="person_svgrepo.com" clip-path="url(#clip0_2488_6827)">
<g id="Group">
<path id="Vector" d="M42.7213 43.585L42.7218 43.5852C44.8957 44.3981 48.5468 45.8443 51.5578 48.0664C54.5242 50.2557 56.6117 52.996 56.4137 56.4274C56.3986 56.4392 56.381 56.4524 56.3605 56.467C56.1439 56.6214 55.757 56.8207 55.1528 57.0411C53.9566 57.4774 52.1561 57.9089 49.8058 58.2877C45.1218 59.0427 38.4468 59.5587 30.5003 59.5587C22.5533 59.5587 15.8779 59.0427 11.1938 58.2877C8.8434 57.9089 7.0428 57.4774 5.8466 57.0411C5.24236 56.8207 4.85551 56.6214 4.63888 56.467C4.61843 56.4524 4.60079 56.4392 4.58565 56.4273C4.38738 52.9958 6.4722 50.2345 9.43415 48.0351C12.4389 45.8039 16.09 44.3554 18.2547 43.5934L18.2555 43.5931C18.465 43.5192 18.6812 43.4313 18.9008 43.3325L26.6624 54.0619L28.6551 56.8166L28.9213 53.4272L29.4275 46.9839H31.5731L32.0791 53.4272L32.3453 56.8166L34.338 54.0619L42.1023 43.3289C42.3114 43.4231 42.5185 43.509 42.7213 43.585ZM56.4846 56.3657C56.4903 56.3579 56.4941 56.354 56.4945 56.3541C56.4949 56.3541 56.492 56.358 56.4846 56.3657ZM4.50491 56.3541C4.50533 56.354 4.50904 56.3579 4.51481 56.3657C4.50737 56.358 4.50449 56.3541 4.50491 56.3541Z" stroke="#EF4136" stroke-width="2.5"/>
<path id="Vector_2" d="M20.4487 6.83031C20.4462 6.82577 20.441 6.81589 20.4334 6.8009C20.4182 6.77089 20.3934 6.72064 20.3622 6.65208C20.2996 6.51456 20.2122 6.30569 20.1237 6.04045C20.0369 5.78027 19.9512 5.47215 19.886 5.12881C20.0654 5.1006 20.2442 5.06675 20.4204 5.02951C21.1306 4.87939 21.9151 4.64767 22.7208 4.38927C23.2583 4.21688 23.8042 4.03339 24.3576 3.84738C25.5113 3.45963 26.6974 3.06096 27.9075 2.72913C29.6917 2.23987 31.3263 1.95856 32.6597 2.09127C33.9305 2.21776 34.8368 2.70237 35.422 3.7261L35.8261 4.43305L36.636 4.34913C38.303 4.17641 39.8187 5.21315 40.7448 7.45823C41.6688 9.69831 41.8586 12.9138 40.8329 16.3091L40.3212 18.0033L42.067 17.9202C42.0695 17.9203 42.0726 17.9204 42.0764 17.9206C42.0999 17.9219 42.1414 17.9256 42.1917 17.9356C42.301 17.9574 42.3945 17.9969 42.4583 18.0489C42.4997 18.0826 42.5845 18.1625 42.6311 18.4011C42.6832 18.6681 42.69 19.1621 42.4536 19.9907C41.9539 21.7422 41.5429 22.6627 41.1646 23.1923C40.8415 23.6447 40.5212 23.8456 39.9817 24.0383L39.2976 24.2827L39.1713 24.9981C38.875 26.6766 38.482 28.2308 38.0108 29.529C37.5325 30.8468 37.0047 31.8134 36.4834 32.3923L36.1623 32.7489V33.2287V33.2393V33.2498V33.2603V33.2709V33.2814V33.2919V33.3024V33.3129V33.3233V33.3338V33.3442V33.3547V33.3651V33.3755V33.3859V33.3963V33.4067V33.417V33.4274V33.4377V33.4481V33.4584V33.4687V33.479V33.4893V33.4996V33.5099V33.5201V33.5304V33.5406V33.5508V33.561V33.5712V33.5814V33.5916V33.6018V33.612V33.6221V33.6322V33.6424V33.6525V33.6626V33.6727V33.6828V33.6929V33.7029V33.713V33.723V33.7331V33.7431V33.7531V33.7631V33.7731V33.7831V33.793V33.803V33.8129V33.8229V33.8328V33.8427V33.8526V33.8625V33.8724V33.8823V33.8921V33.902V33.9118V33.9217V33.9315V33.9413V33.9511V33.9609V33.9707V33.9804V33.9902V33.9999V34.0097V34.0194V34.0291V34.0388V34.0485V34.0582V34.0679V34.0775V34.0872V34.0968V34.1065V34.1161V34.1257V34.1353V34.1449V34.1545V34.1641V34.1736V34.1832V34.1927V34.2023V34.2118V34.2213V34.2308V34.2403V34.2498V34.2592V34.2687V34.2782V34.2876V34.297V34.3064V34.3159V34.3253V34.3346V34.344V34.3534V34.3628V34.3721V34.3815V34.3908V34.4001V34.4094V34.4187V34.428V34.4373V34.4466V34.4558V34.4651V34.4743V34.4835V34.4928V34.502V34.5112V34.5204V34.5295V34.5387V34.5479V34.557V34.5662V34.5753V34.5844V34.5935V34.6026V34.6117V34.6208V34.6299V34.639V34.648V34.6571V34.6661V34.6751V34.6841V34.6931V34.7021V34.7111V34.7201V34.7291V34.738V34.747V34.7559V34.7648V34.7738V34.7827V34.7916V34.8005V34.8094V34.8182V34.8271V34.8359V34.8448V34.8536V34.8624V34.8713V34.8801V34.8889V34.8976V34.9064V34.9152V34.924V34.9327V34.9414V34.9502V34.9589V34.9676V34.9763V34.985V34.9937V35.0024V35.011V35.0197V35.0283V35.037V35.0456V35.0542V35.0628V35.0714V35.08V35.0886V35.0972V35.1057V35.1143V35.1228V35.1314V35.1399V35.1484V35.1569V35.1654V35.1739V35.1824V35.1909V35.1993V35.2078V35.2162V35.2247V35.2331V35.2415V35.2499V35.2583V35.2667V35.2751V35.2835V35.2918V35.3002V35.3085V35.3169V35.3252V35.3335V35.3418V35.3501V35.3584V35.3667V35.375V35.3832V35.3915V35.3998V35.408V35.4162V35.4244V35.4327V35.4409V35.4491V35.4572V35.4654V35.4736V35.4818V35.4899V35.4981V35.5062V35.5143V35.5224V35.5305V35.5386V35.5467V35.5548V35.5629V35.571V35.579V35.5871V35.5951V35.6031V35.6111V35.6192V35.6272V35.6352V35.6432V35.6511V35.6591V35.6671V35.675V35.683V35.6909V35.6988V35.7068V35.7147V35.7226V35.7305V35.7383V35.7462V35.7541V35.762V35.7698V35.7777V35.7855V35.7933V35.8011V35.809V35.8168V35.8246V35.8323V35.8401V35.8479V35.8556V35.8634V35.8711V35.8789V35.8866V35.8943V35.902V35.9098V35.9174V35.9251V35.9328V35.9405V35.9481V35.9558V35.9635V35.9711V35.9787V35.9863V35.994V36.0016V36.0092V36.0168V36.0243V36.0319V36.0395V36.047V36.0546V36.0621V36.0697V36.0772V36.0847V36.0922V36.0997V36.1072V36.1147V36.1222V36.1297V36.1371V36.1446V36.152V36.1595V36.1669V36.1743V36.1817V36.1891V36.1965V36.2039V36.2113V36.2187V36.2261V36.2334V36.2408V36.2481V36.2555V36.2628V36.2701V36.2774V36.2847V36.292V36.2993V36.3066V36.3139V36.3212V36.3284V36.3357V36.3429V36.3502V36.3574V36.3646V36.3718V36.379V36.3862V36.3934V36.4006V36.4078V36.415V36.4221V36.4293V36.4364V36.4436V36.4507V36.4578V36.465V36.4721V36.4792V36.4863V36.4934V36.5004V36.5075V36.5146V36.5216V36.5287V36.5357V36.5428V36.5498V36.5568V36.5638V36.5709V36.5779V36.5849V36.5918V36.5988V36.6058V36.6128V36.6197V36.6267V36.6336V36.6405V36.6475V36.6544V36.6613V36.6682V36.6751V36.682V36.6889V36.6958V36.7026V36.7095V36.7164V36.7232V36.7301V36.7369V36.7437V36.7505V36.7574V36.7642V36.771V36.7778V36.7846V36.7913V36.7981V36.8049V36.8116V36.8184V36.8251V36.8319V36.8386V36.8453V36.8521V36.8588V36.8655V36.8722V36.8789V36.8855V36.8922V36.8989V36.9056V36.9122V36.9189V36.9255V36.9321V36.9388V36.9454V36.952V36.9586V36.9652V36.9703L32.1855 38.8856L31.4779 39.2264V40.0118V42.1069H29.5209V40.0118V39.2264L28.8133 38.8856L24.8341 36.9691V36.9652V36.9586V36.952V36.9454V36.9388V36.9321V36.9255V36.9189V36.9122V36.9056V36.8989V36.8922V36.8855V36.8789V36.8722V36.8655V36.8588V36.8521V36.8453V36.8386V36.8319V36.8251V36.8184V36.8116V36.8049V36.7981V36.7913V36.7846V36.7778V36.771V36.7642V36.7574V36.7505V36.7437V36.7369V36.7301V36.7232V36.7164V36.7095V36.7026V36.6958V36.6889V36.682V36.6751V36.6682V36.6613V36.6544V36.6475V36.6405V36.6336V36.6267V36.6197V36.6128V36.6058V36.5988V36.5918V36.5849V36.5779V36.5709V36.5638V36.5568V36.5498V36.5428V36.5357V36.5287V36.5216V36.5146V36.5075V36.5004V36.4934V36.4863V36.4792V36.4721V36.465V36.4578V36.4507V36.4436V36.4364V36.4293V36.4221V36.415V36.4078V36.4006V36.3934V36.3862V36.379V36.3718V36.3646V36.3574V36.3502V36.3429V36.3357V36.3284V36.3212V36.3139V36.3066V36.2993V36.292V36.2847V36.2774V36.2701V36.2628V36.2555V36.2481V36.2408V36.2334V36.2261V36.2187V36.2113V36.2039V36.1965V36.1891V36.1817V36.1743V36.1669V36.1595V36.152V36.1446V36.1371V36.1297V36.1222V36.1147V36.1072V36.0997V36.0922V36.0847V36.0772V36.0697V36.0621V36.0546V36.047V36.0395V36.0319V36.0243V36.0168V36.0092V36.0016V35.994V35.9863V35.9787V35.9711V35.9635V35.9558V35.9481V35.9405V35.9328V35.9251V35.9174V35.9098V35.902V35.8943V35.8866V35.8789V35.8711V35.8634V35.8556V35.8479V35.8401V35.8323V35.8246V35.8168V35.809V35.8011V35.7933V35.7855V35.7777V35.7698V35.762V35.7541V35.7462V35.7383V35.7305V35.7226V35.7147V35.7068V35.6988V35.6909V35.683V35.675V35.6671V35.6591V35.6511V35.6432V35.6352V35.6272V35.6192V35.6111V35.6031V35.5951V35.5871V35.579V35.571V35.5629V35.5548V35.5467V35.5386V35.5305V35.5224V35.5143V35.5062V35.4981V35.4899V35.4818V35.4736V35.4654V35.4572V35.4491V35.4409V35.4327V35.4244V35.4162V35.408V35.3998V35.3915V35.3832V35.375V35.3667V35.3584V35.3501V35.3418V35.3335V35.3252V35.3169V35.3085V35.3002V35.2918V35.2835V35.2751V35.2667V35.2583V35.2499V35.2415V35.2331V35.2247V35.2162V35.2078V35.1993V35.1909V35.1824V35.1739V35.1654V35.1569V35.1484V35.1399V35.1314V35.1228V35.1143V35.1057V35.0972V35.0886V35.08V35.0714V35.0628V35.0542V35.0456V35.037V35.0283V35.0197V35.011V35.0024V34.9937V34.985V34.9763V34.9676V34.9589V34.9502V34.9414V34.9327V34.924V34.9152V34.9064V34.8976V34.8889V34.8801V34.8713V34.8624V34.8536V34.8448V34.8359V34.8271V34.8182V34.8094V34.8005V34.7916V34.7827V34.7738V34.7648V34.7559V34.747V34.738V34.7291V34.7201V34.7111V34.7021V34.6931V34.6841V34.6751V34.6661V34.6571V34.648V34.639V34.6299V34.6208V34.6117V34.6026V34.5935V34.5844V34.5753V34.5662V34.557V34.5479V34.5387V34.5295V34.5204V34.5112V34.502V34.4928V34.4835V34.4743V34.4651V34.4558V34.4466V34.4373V34.428V34.4187V34.4094V34.4001V34.3908V34.3815V34.3721V34.3628V34.3534V34.344V34.3346V34.3253V34.3159V34.3064V34.297V34.2876V34.2782V34.2687V34.2592V34.2498V34.2403V34.2308V34.2213V34.2118V34.2023V34.1927V34.1832V34.1736V34.1641V34.1545V34.1449V34.1353V34.1257V34.1161V34.1065V34.0968V34.0872V34.0775V34.0679V34.0582V34.0485V34.0388V34.0291V34.0194V34.0097V33.9999V33.9902V33.9804V33.9707V33.9609V33.9511V33.9413V33.9315V33.9217V33.9118V33.902V33.8921V33.8823V33.8724V33.8625V33.8526V33.8427V33.8328V33.8229V33.8129V33.803V33.793V33.7831V33.7731V33.7631V33.7531V33.7431V33.7331V33.723V33.713V33.7029V33.6929V33.6828V33.6727V33.6626V33.6525V33.6424V33.6322V33.6221V33.612V33.6018V33.5916V33.5814V33.5712V33.561V33.5508V33.5406V33.5304V33.5201V33.5099V33.4996V33.4893V33.479V33.4687V33.4584V33.4481V33.4377V33.4274V33.417V33.4067V33.3963V33.3859V33.3755V33.3651V33.3547V33.3442V33.3338V33.3233V33.3129V33.3024V33.2919V33.2814V33.2709V33.2603V33.2498V33.2393V33.2287V32.7495L24.5138 32.3931C23.9933 31.814 23.4658 30.8472 22.9877 29.5293C22.5168 28.2309 22.1238 26.6766 21.8275 24.9981L21.7011 24.2822L21.0164 24.038C20.4761 23.8454 20.1561 23.6446 19.8333 23.1925C19.4551 22.6628 19.0444 21.7424 18.5441 19.9904L18.5441 19.9903C18.0968 18.4244 18.5001 18.0795 18.5217 18.061C18.5221 18.0607 18.5223 18.0605 18.5224 18.0604C18.5772 18.0106 18.659 17.9697 18.7648 17.9439C18.8596 17.9209 18.9313 17.9205 18.9313 17.9204M20.4487 6.83031L20.4483 6.82973L20.4494 6.83179M20.4487 6.83031L20.4492 6.83136L20.4501 6.83306C20.4503 6.83339 20.4501 6.83296 20.4494 6.83179M20.4487 6.83031C20.449 6.83089 20.4492 6.83139 20.4494 6.83179M20.4494 6.83179L20.7761 7.41919L20.4605 8.01804C20.0058 8.88052 19.8098 10.3382 19.8178 12.0396C19.8255 13.6859 20.0199 15.3529 20.1875 16.488L20.4028 17.9463L18.9313 17.9204M18.9313 17.9204C18.9313 17.9204 18.9305 17.9204 18.9289 17.9204L18.9313 17.9204Z" stroke="#EF4136" stroke-width="2.5"/>
</g>
</g>
<defs>
<clipPath id="clip0_2488_6827">
<rect width="60" height="60" fill="white" transform="translate(0.5 0.808594)"/>
</clipPath>
</defs>
</svg>
