<svg width="76" height="77" viewBox="0 0 76 77" fill="none" xmlns="http://www.w3.org/2000/svg">
<g id="persons_svgrepo.com" clip-path="url(#clip0_2488_6816)">
<g id="Page-1">
<g id="Persons">
<path id="Shape" d="M23.75 53.652H1.1875C1.1875 44.7457 9.2625 44.2707 11.7562 43.0832C13.3 42.3707 15.4375 41.0645 15.4375 39.877C15.4375 39.2832 15.2 38.8082 14.9625 38.6895C11.9938 37.1457 11.4 31.802 11.1625 31.802C10.2125 31.802 9.5 29.427 9.5 27.7645C9.5 26.4582 9.85625 26.4582 10.5688 26.102V25.8645C10.5688 21.5895 13.5375 17.9082 17.8125 17.9082C22.2063 17.9082 25.0563 21.7082 25.0563 25.9832V26.2207C25.7688 26.577 26.0062 26.8145 26.0062 28.1207C26.0062 29.7832 25.4125 32.0395 24.4625 32.0395C24.225 32.0395 23.6313 37.027 20.7812 38.6895C20.5437 38.8082 20.3063 39.0457 20.3063 39.6395C20.3063 40.9457 22.5625 42.252 24.1062 42.9645C25.65 43.677 30.9938 44.3895 33.3688 48.7832" stroke="#EF4136" stroke-width="2.5"/>
<path id="Shape_2" d="M42.3945 49.1395C44.6508 44.5082 50.1133 43.9145 52.0133 43.0832C53.557 42.3707 55.6945 41.0645 55.6945 39.877C55.6945 39.2832 55.457 38.8082 55.2195 38.6895C52.2508 37.1457 51.7758 31.802 51.5383 31.802C50.5883 31.802 49.8758 29.427 49.8758 27.7645C49.8758 26.4582 50.232 26.4582 50.9445 26.102V25.8645C50.9445 21.5895 53.6758 17.9082 58.0695 17.9082C62.4633 17.9082 65.5508 21.7082 65.5508 25.9832V26.2207C66.2633 26.577 66.5008 26.8145 66.5008 28.1207C66.5008 29.7832 65.907 32.0395 64.957 32.0395C64.7195 32.0395 64.007 37.027 61.157 38.6895C60.9195 38.8082 60.682 39.0457 60.682 39.6395C60.682 40.9457 62.9383 42.252 64.482 42.9645C66.382 43.9145 74.8133 44.7457 74.8133 53.5332H51.4195" stroke="#EF4136" stroke-width="2.5"/>
<path id="Shape_3" fill-rule="evenodd" clip-rule="evenodd" d="M31.8246 50.2086C33.3684 49.4961 35.5059 48.1898 35.5059 47.0023C35.5059 46.4086 35.2684 45.9336 35.0309 45.8148C32.0621 44.2711 31.5871 38.9273 31.3496 38.9273C30.3996 38.9273 29.6871 36.5523 29.6871 34.8898C29.6871 33.5836 30.0434 33.5836 30.7559 33.2273V33.1086C30.7559 28.8336 33.4871 25.1523 37.8809 25.1523C42.2746 25.1523 45.3621 28.9523 45.3621 33.2273V33.4648C46.0746 33.8211 46.3121 34.0586 46.3121 35.3648C46.3121 37.0273 45.7184 39.2836 44.7684 39.2836C44.5309 39.2836 43.8184 44.2711 40.9684 45.9336C40.7309 46.0523 40.4934 46.2898 40.4934 46.8836C40.4934 48.1898 42.7496 49.4961 44.2934 50.2086C46.1934 51.1586 54.6246 51.9898 54.6246 60.7773H21.2559C21.2559 51.8711 29.4496 51.3961 31.8246 50.2086Z" stroke="#EF4136" stroke-width="2.5"/>
</g>
</g>
</g>
<defs>
<clipPath id="clip0_2488_6816">
<rect width="76" height="76" fill="white" transform="translate(0 0.808594)"/>
</clipPath>
</defs>
</svg>
