<svg width="76" height="76" viewBox="0 0 76 76" fill="none" xmlns="http://www.w3.org/2000/svg">
<path d="M52.0277 18.2115C51.281 18.2115 50.5514 18.354 49.856 18.6371C46.9053 19.8303 45.4803 23.2047 46.6754 26.1668C47.5665 28.3556 49.6698 29.7692 52.0372 29.7692C52.7782 29.7692 53.5021 29.6286 54.1899 29.3493C55.6263 28.7679 56.7473 27.6659 57.3477 26.2428C57.9519 24.8197 57.9671 23.2541 57.3876 21.8234C56.5022 19.6289 54.3913 18.2115 52.0277 18.2115ZM54.7713 25.1465C54.4578 25.8799 53.8783 26.4499 53.1411 26.7501C52.7858 26.8907 52.4134 26.9648 52.0391 26.9648C50.8155 26.9648 49.7306 26.2371 49.2765 25.1085C48.659 23.5866 49.3943 21.8462 50.9105 21.2325C51.2677 21.0881 51.6458 21.014 52.0277 21.014C53.2475 21.014 54.3343 21.7455 54.7941 22.8722C55.0886 23.6075 55.081 24.415 54.7713 25.1465Z" fill="#EF4136"/>
<path d="M27.4702 40.1071C22.8323 40.1071 19.0551 43.8805 19.0551 48.5241C19.0551 53.1563 22.8304 56.9259 27.4702 56.9259C32.1062 56.9259 35.8796 53.1563 35.8796 48.5241C35.8796 43.8824 32.1062 40.1071 27.4702 40.1071ZM27.4702 54.1234C24.377 54.1234 21.8576 51.6116 21.8576 48.5241C21.8576 45.429 24.377 42.9115 27.4702 42.9115C30.5634 42.9115 33.0771 45.429 33.0771 48.5241C33.0771 51.6116 30.5634 54.1234 27.4702 54.1234Z" fill="#EF4136"/>
<path d="M44.8666 45.0205L41.4219 43.7608C41.2205 43.1661 40.9792 42.5866 40.7018 42.0204L42.2427 38.6878C42.6094 37.8993 42.484 36.9607 41.9235 36.3033C41.249 35.5015 40.4947 34.7491 39.6872 34.067C39.2844 33.7269 38.7714 33.5369 38.2394 33.5369C37.9221 33.5369 37.6143 33.6034 37.3236 33.7307C37.3179 33.7345 37.3103 33.7383 37.3027 33.7421L33.9701 35.2868C33.4115 35.0132 32.8301 34.7719 32.2354 34.5724L30.9624 31.1125C30.6622 30.305 29.9117 29.7369 29.0529 29.6628C28.0098 29.5716 26.9325 29.5716 25.8913 29.6628C25.0306 29.7369 24.2801 30.305 23.9761 31.1201L22.7126 34.5648C22.1217 34.7681 21.5403 35.0094 20.9741 35.2868L17.6358 33.7421C17.6301 33.7383 17.6244 33.7345 17.6187 33.7307C17.3261 33.6053 17.0183 33.5369 16.701 33.5369C16.1671 33.5369 15.6522 33.7288 15.2513 34.0689C14.4419 34.7548 13.6914 35.5072 13.0226 36.2957C12.4602 36.9531 12.3329 37.8879 12.6958 38.684L14.2405 42.0166C13.9669 42.5752 13.7256 43.1566 13.5242 43.7532L10.0738 45.0205C9.2606 45.3188 8.6887 46.0712 8.6127 46.9433C8.531 47.9883 8.531 49.0447 8.6127 50.0935C8.6868 50.958 9.2587 51.7104 10.0719 52.0068L13.5204 53.276C13.7218 53.8688 13.9631 54.4483 14.2405 55.0107L12.6939 58.3604C12.3367 59.1375 12.4621 60.0647 13.015 60.7335C13.6895 61.5334 14.4457 62.2877 15.257 62.9755C15.2627 62.9793 15.2665 62.9831 15.2703 62.9869C15.6731 63.3194 16.1804 63.498 16.701 63.498C17.0278 63.498 17.3546 63.4258 17.6396 63.2909L20.9646 61.7462C21.5232 62.0236 22.1065 62.263 22.7069 62.4682L23.9761 65.9167C24.2801 66.7394 25.0344 67.3075 25.8989 67.3702C26.429 67.4139 26.9591 67.4386 27.4702 67.4386C27.9832 67.4386 28.5114 67.4139 29.0434 67.3702C29.9079 67.3094 30.6622 66.7394 30.9643 65.9129L32.2297 62.4739C32.8187 62.2706 33.4001 62.0255 33.9663 61.7519L37.3198 63.3023C37.6086 63.4296 37.9164 63.4961 38.2356 63.4961C38.7524 63.4961 39.2616 63.3175 39.6625 62.9888C39.6701 62.985 39.6777 62.9774 39.6853 62.9698C40.4909 62.2877 41.2433 61.5353 41.9159 60.743C42.484 60.0856 42.6132 59.1432 42.2427 58.3547L40.7018 55.0164C40.9773 54.4502 41.2167 53.8688 41.4181 53.2741L44.8666 52.0087C45.6817 51.7085 46.2517 50.9561 46.3277 50.0916C46.4113 49.0466 46.4113 47.9864 46.3258 46.93C46.2536 46.0712 45.6779 45.3207 44.8666 45.0205ZM43.5594 49.5026L39.8031 50.8877C39.3832 51.0435 39.0602 51.3874 38.9386 51.8168C38.6916 52.6794 38.3458 53.5192 37.9126 54.3077C37.696 54.6972 37.6808 55.1684 37.8689 55.575L39.5466 59.2021C39.1096 59.6942 38.6384 60.1616 38.1463 60.5986L34.5173 58.9152C34.1145 58.729 33.6433 58.748 33.2519 58.9589C32.4539 59.3997 31.6141 59.7474 30.761 60.0001C30.3316 60.1198 29.9877 60.4409 29.8338 60.8608L28.462 64.6019C27.7894 64.6456 27.1529 64.6456 26.4822 64.6019L25.1009 60.8532C24.9451 60.4333 24.6012 60.1122 24.1737 59.9887C23.2921 59.736 22.4542 59.3864 21.6866 58.9589C21.2933 58.7404 20.8221 58.7214 20.4155 58.9114L16.7903 60.591C16.2925 60.154 15.8251 59.6809 15.3938 59.1983L17.0715 55.5636C17.2596 55.157 17.2406 54.6877 17.024 54.2963C16.587 53.504 16.2393 52.6699 15.9942 51.8111C15.8707 51.3817 15.5496 51.0321 15.1278 50.8801L11.381 49.5026C11.343 48.8452 11.343 48.1821 11.381 47.5285L15.1354 46.1472C15.5534 45.9952 15.8726 45.6475 15.9999 45.2219C16.2526 44.3422 16.5984 43.5062 17.0278 42.731C17.2444 42.3377 17.2634 41.8665 17.0753 41.4618L15.3976 37.8404C15.8308 37.3521 16.3001 36.8847 16.7979 36.4401L20.4269 38.1197C20.8316 38.3097 21.3028 38.2907 21.6942 38.076C22.4884 37.6352 23.3244 37.2875 24.1775 37.0443C24.6088 36.9208 24.9546 36.5997 25.1085 36.1779L26.4822 32.4292C27.1396 32.3893 27.8046 32.3893 28.462 32.4292L29.8433 36.1855C29.9972 36.6111 30.343 36.9322 30.7724 37.0519C31.6426 37.3027 32.4805 37.6466 33.2595 38.076C33.649 38.2907 34.1202 38.3097 34.5268 38.1197L38.1482 36.4401C38.6441 36.8771 39.1115 37.3464 39.5485 37.8404L37.8708 41.4732C37.6827 41.8779 37.6998 42.3491 37.9164 42.7386C38.3515 43.5271 38.6992 44.3631 38.9481 45.2295C39.0697 45.657 39.3927 46.0028 39.8126 46.1548L43.5613 47.5285C43.5955 48.184 43.5955 48.849 43.5594 49.5026Z" fill="#EF4136"/>
<path d="M64.5601 24.7741C64.5848 24.3181 64.5924 23.8564 64.5677 23.3947L66.7603 21.4016C67.3588 20.862 67.5963 20.007 67.355 19.2223C67.0871 18.3578 66.7489 17.5218 66.3442 16.7295C65.9832 16.0246 65.2631 15.5857 64.4803 15.5857C64.4499 15.5857 64.4214 15.5857 64.4062 15.5857L61.4498 15.6845C61.1515 15.3444 60.8247 15.0157 60.4827 14.7022L60.6233 11.7382C60.6233 11.7268 60.6233 11.7116 60.6271 11.6983C60.6423 10.8908 60.192 10.1365 59.4985 9.7812C58.7157 9.3689 57.8892 9.0193 57.0247 8.7305C56.8176 8.6659 56.5972 8.6279 56.3768 8.6279C55.8011 8.6279 55.2425 8.8692 54.8435 9.2929L52.8238 11.457C52.3602 11.4285 51.9042 11.4247 51.4425 11.4475L49.4494 9.2492C49.0561 8.8122 48.4861 8.5614 47.8933 8.5614C47.6824 8.5614 47.4734 8.5937 47.2701 8.6564C46.4208 8.9224 45.5848 9.2568 44.7868 9.6634C44.0553 10.0301 43.6031 10.7977 43.6373 11.6033L43.7342 14.5635C43.3884 14.8713 43.0616 15.1924 42.7519 15.5325L39.7898 15.39C38.969 15.3501 38.209 15.789 37.8366 16.5072C37.4224 17.2919 37.069 18.1241 36.7859 18.9791C36.784 18.9886 36.7802 19 36.7764 19.0076C36.5427 19.7771 36.7536 20.6036 37.3502 21.1736L39.5124 23.1895C39.482 23.6512 39.4782 24.1148 39.501 24.5746L37.3008 26.5677C36.7042 27.1187 36.4743 27.968 36.7099 28.7299C36.8372 29.1536 36.9854 29.5678 37.1621 30.0067C37.3407 30.4437 37.5231 30.8427 37.7169 31.2227C38.0741 31.939 38.7923 32.3798 39.5922 32.3798C39.615 32.3798 39.6321 32.3798 39.6625 32.376L42.6132 32.2772C42.9172 32.623 43.244 32.9517 43.586 33.2633L43.4435 36.2368C43.4093 37.0405 43.8501 37.8024 44.5588 38.1767C45.3169 38.5795 46.1472 38.9329 47.0345 39.2293C47.2454 39.3015 47.4696 39.3357 47.6919 39.3357C48.2752 39.3357 48.8338 39.0906 49.2252 38.6631L51.243 36.5085C51.7028 36.5351 52.1626 36.5389 52.6281 36.5161L54.6174 38.703C55.0164 39.1438 55.5864 39.3946 56.1754 39.3946C56.3825 39.3946 56.5934 39.3661 56.7929 39.3034C57.6479 39.0374 58.4877 38.6992 59.2705 38.3002C60.002 37.9411 60.458 37.1754 60.4314 36.3489L60.3326 33.4001C60.6765 33.0961 61.0052 32.7674 61.3149 32.4273L64.277 32.5698C64.3131 32.5736 64.3454 32.5736 64.3815 32.5736C65.1681 32.5736 65.8749 32.1423 66.234 31.4526C66.6463 30.6793 66.9997 29.8509 67.2847 28.9845C67.5374 28.2188 67.3227 27.3619 66.728 26.7995L64.5601 24.7741ZM61.7234 22.9691C61.8051 23.7025 61.7975 24.4378 61.7082 25.1541C61.6512 25.5987 61.8165 26.0452 62.1414 26.3511L64.4708 28.5323C64.3169 28.9541 64.144 29.3588 63.9521 29.7483L60.7696 29.5925C60.3212 29.5735 59.8937 29.7635 59.6144 30.1093C59.147 30.6869 58.6169 31.2075 58.0412 31.6597C57.6897 31.9352 57.4921 32.3608 57.5073 32.8092L57.6156 35.9841C57.2166 36.1703 56.8043 36.3394 56.3882 36.4857L54.2431 34.1202C53.9752 33.8295 53.5971 33.6642 53.2076 33.6642C53.1563 33.6642 53.1031 33.6642 53.0556 33.6718C52.3089 33.7516 51.5717 33.744 50.863 33.6566C50.4222 33.5996 49.9719 33.763 49.6679 34.0917L47.4905 36.4173C47.063 36.2615 46.6583 36.0848 46.2688 35.9005L46.4227 32.7142C46.4455 32.2658 46.2498 31.8383 45.904 31.5571C45.3283 31.0897 44.8115 30.5653 44.365 29.9953C44.0895 29.6381 43.662 29.4405 43.2117 29.4519L40.0311 29.5621C39.9418 29.3645 39.8525 29.165 39.7651 28.9503C39.6796 28.7432 39.6036 28.5361 39.5314 28.3366L41.8931 26.1915C42.2237 25.8913 42.3947 25.4486 42.3434 25.0078C42.2674 24.2858 42.275 23.541 42.3605 22.8C42.4137 22.3592 42.2522 21.9165 41.9254 21.6106L39.5979 19.4351C39.7499 19.0171 39.9209 18.6124 40.1147 18.2172L43.3067 18.3673C43.7532 18.3901 44.1807 18.1963 44.4619 17.8505C44.9179 17.2881 45.4499 16.7637 46.0313 16.3001C46.3809 16.0246 46.5766 15.6028 46.5614 15.1563L46.4569 11.9738C46.8578 11.7895 47.2701 11.6223 47.6843 11.476L49.8256 13.8415C50.1277 14.1702 50.5666 14.3374 51.0074 14.2937C51.737 14.2158 52.4818 14.2196 53.219 14.3089C53.6598 14.3583 54.1044 14.1987 54.4046 13.8719L56.5782 11.5501C56.9943 11.7021 57.4047 11.8788 57.8056 12.0669L57.6536 15.2494C57.6308 15.694 57.8208 16.1215 58.1628 16.4027C58.7537 16.8796 59.2686 17.4135 59.7094 17.9759C59.9868 18.3255 60.4105 18.5231 60.8589 18.5117L64.0471 18.4053C64.2295 18.8024 64.3967 19.2109 64.543 19.6346L62.1775 21.7797C61.8469 22.0818 61.6778 22.5226 61.7234 22.9691Z" fill="#EF4136"/>
</svg>
