<svg width="76" height="76" viewBox="0 0 76 76" fill="none" xmlns="http://www.w3.org/2000/svg">
<g clip-path="url(#clip0_2223_540)">
<path d="M72.216 62.3571L56.5433 46.6842L62.8824 44.3771C63.4229 44.1804 63.7441 43.624 63.6441 43.0576L61.946 33.4274L66.8353 24.9587C67.1229 24.4606 67.0114 23.828 66.5708 23.4584L59.0798 17.1728L57.3817 7.54252C57.2818 6.97623 56.7898 6.56342 56.2146 6.56342H46.4356L38.945 0.277257C38.5043 -0.0925003 37.862 -0.0925003 37.4213 0.277257L29.9304 6.56298H20.1515C19.5763 6.56298 19.0844 6.97578 18.9845 7.54207L17.2864 17.1722L9.79522 23.458C9.35466 23.8276 9.24318 24.4602 9.5307 24.9582L14.4202 33.427L12.7221 43.0572C12.6221 43.6236 12.9433 44.1798 13.4837 44.3766L19.5547 46.5861L3.78396 62.3571C3.45784 62.6834 3.35052 63.1697 3.50935 63.6028C3.66803 64.0361 4.06376 64.3377 4.52362 64.376L14.2503 65.1868L15.061 74.9133C15.0993 75.3731 15.4009 75.7689 15.8342 75.9275C15.9672 75.9764 16.105 76 16.2417 76C16.5506 76 16.8537 75.8791 17.0799 75.6529L38.0001 54.7328L58.9202 75.6529C59.1466 75.8791 59.4495 76 59.7584 76C59.8952 76 60.0331 75.9764 60.1659 75.9275C60.5992 75.7689 60.9008 75.3731 60.939 74.9133L61.7499 65.1869L71.4764 64.3762C71.9362 64.3379 72.332 64.0362 72.4906 63.6028C72.6495 63.1695 72.5421 62.6835 72.216 62.3571ZM17.2107 72.1703L16.5289 63.9907C16.4808 63.414 16.0233 62.9562 15.4464 62.9081L7.26674 62.2263L22.0122 47.4809L22.6729 47.7213L27.5623 56.1901C27.779 56.5655 28.1753 56.7828 28.5889 56.7828C28.7239 56.7828 28.8608 56.7597 28.9939 56.7113L34.7722 54.6082L17.2107 72.1703ZM39.1494 51.1966L38.5882 50.9925C38.3265 50.897 38.0394 50.897 37.7777 50.9925L36.9465 51.295L29.1177 54.1442L24.5098 46.1631C24.3704 45.9218 24.1507 45.7373 23.8889 45.6419L22.1136 44.9956L15.2289 42.49L16.8294 33.4144C16.8779 33.1398 16.828 32.8571 16.6888 32.6158L12.0807 24.6346L19.1407 18.7108C19.3541 18.5318 19.4977 18.2833 19.5458 18.009L21.1461 8.93322H30.3618C30.6406 8.93322 30.9103 8.83511 31.1236 8.65594L38.1832 2.73211L45.2429 8.65594C45.4564 8.83511 45.7261 8.93322 46.0047 8.93322H55.2206L56.8209 18.009C56.8693 18.2833 57.0126 18.5319 57.226 18.7108L64.2858 24.6346L59.6778 32.6158C59.5385 32.857 59.4887 33.1398 59.5371 33.4142L61.1376 42.4898L53.9847 45.0933L52.4774 45.6419C52.2157 45.7373 51.9958 45.9217 51.8565 46.1631L47.2487 54.1442L39.1515 51.1972L39.1494 51.1966ZM60.5538 62.9083C59.9771 62.9563 59.5193 63.4138 59.4712 63.9908L58.7896 72.1704L41.0182 54.3986L47.3722 56.7115C47.5054 56.76 47.6423 56.783 47.7773 56.783C48.1909 56.783 48.5872 56.5657 48.8039 56.1903L53.6931 47.7215L54.0856 47.5787L68.7334 62.2265L60.5538 62.9083Z" fill="#EF4136"/>
<path d="M38.0002 10.1711C27.5887 10.1711 19.1184 18.6414 19.1184 29.0529C19.1184 39.4644 27.5888 47.9345 38.0002 47.9345C48.4117 47.9345 56.8819 39.4643 56.8819 29.0529C56.8819 18.6415 48.4116 10.1711 38.0002 10.1711ZM38.0002 45.5644C28.8957 45.5644 21.4885 38.1573 21.4885 29.0527C21.4885 19.9482 28.8957 12.5412 38.0002 12.5412C47.1046 12.5412 54.5119 19.9483 54.5119 29.0529C54.5119 38.1574 47.1046 45.5644 38.0002 45.5644Z" fill="#EF4136"/>
<path d="M51.6386 25.2792C51.4799 24.7908 51.025 24.4602 50.5115 24.4602H41.7653L39.0627 16.1421C38.9041 15.6538 38.4491 15.3232 37.9356 15.3232C37.4224 15.3232 36.9672 15.6538 36.8086 16.1421L34.1058 24.4602H25.3596C24.8463 24.4602 24.3912 24.7908 24.2325 25.2792C24.0738 25.7674 24.2477 26.3023 24.6631 26.6041L31.739 31.7449L29.0362 40.0632C28.8776 40.5514 29.0514 41.0864 29.4669 41.3882C29.6745 41.5391 29.9188 41.6145 30.1633 41.6145C30.4078 41.6145 30.6521 41.539 30.8598 41.3882L37.9356 36.2475L45.0113 41.3882C45.4267 41.6899 45.9891 41.6899 46.4043 41.3882C46.8196 41.0865 46.9933 40.5516 46.8349 40.0632L44.1322 31.7449L51.208 26.6041C51.6235 26.3023 51.7972 25.7674 51.6386 25.2792ZM42.0426 30.3337C41.6273 30.6354 41.4535 31.1703 41.612 31.6587L43.4537 37.3269L38.632 33.8239C38.2166 33.5222 37.6542 33.5222 37.239 33.8239L32.4172 37.3271L34.2589 31.6587C34.4175 31.1705 34.2437 30.6355 33.8282 30.3339L29.0067 26.8306H34.9669C35.4802 26.8306 35.9353 26.5001 36.094 26.0117L37.9356 20.3435L39.7772 26.0117C39.9358 26.5001 40.3908 26.8306 40.9042 26.8306H46.8644L42.0426 30.3337Z" fill="#EF4136"/>
</g>
<defs>
<clipPath id="clip0_2223_540">
<rect width="76" height="76" fill="white"/>
</clipPath>
</defs>
</svg>
