<svg width="76" height="76" viewBox="0 0 76 76" fill="none" xmlns="http://www.w3.org/2000/svg">
<path d="M70.6634 33.1348C70.3927 24.874 66.9796 17.028 61.1206 11.1981C54.9421 5.0184 46.7305 1.61621 38 1.61621C20.3668 1.61621 5.95888 15.6513 5.33781 33.1348C3.97817 33.7371 2.82238 34.7208 2.01049 35.9666C1.1986 37.2125 0.765466 38.6671 0.763565 40.1541V48.7778C0.765765 50.8142 1.57569 52.7665 3.01563 54.2065C4.45558 55.6464 6.40793 56.4563 8.44431 56.4585C9.76188 56.457 11.025 55.9329 11.9567 55.0012C12.8883 54.0695 13.4124 52.8064 13.414 51.4888V37.4419C13.414 34.8686 11.4404 32.7703 8.93119 32.5209C9.85744 17.2888 22.5376 5.17871 38 5.17871C45.7805 5.17871 53.0967 8.21159 58.6031 13.718C63.6595 18.7744 66.6188 25.365 67.0641 32.5221C64.5572 32.7738 62.5872 34.871 62.5872 37.4419V51.4877C62.5872 54.0823 64.5917 56.1937 67.1306 56.4134V59.9628C67.1284 61.8848 66.3638 63.7274 65.0047 65.0863C63.6455 66.4452 61.8028 67.2094 59.8809 67.2113H54.5122C54.1502 66.1561 53.4669 65.2407 52.5581 64.5936C51.6493 63.9466 50.5607 63.6004 49.4451 63.6037H43.9114C43.1169 63.6037 42.3546 63.7723 41.6563 64.0977C40.7213 64.5297 39.9294 65.22 39.3739 66.0873C38.8185 66.9546 38.5226 67.9627 38.5213 68.9926C38.5213 70.4342 39.083 71.788 40.1007 72.8009C40.5995 73.3037 41.1932 73.7025 41.8474 73.974C42.5015 74.2455 43.2031 74.3844 43.9114 74.3827H49.4451C51.7394 74.3827 53.7617 72.8995 54.5158 70.7738H59.8809C65.8433 70.7738 70.6931 65.9241 70.6931 59.9628V55.7793C72.0446 55.1736 73.1924 54.1904 73.9985 52.9479C74.8045 51.7054 75.2344 50.2565 75.2364 48.7754V40.1518C75.2364 37.0239 73.3531 34.3306 70.6634 33.1348ZM9.85032 37.4419V51.4877C9.85032 52.2631 9.21975 52.8948 8.44313 52.8948C7.35129 52.8936 6.30452 52.4593 5.53247 51.6872C4.76042 50.9152 4.32613 49.8684 4.32488 48.7766V40.153C4.32613 39.0611 4.76042 38.0144 5.53247 37.2423C6.30452 36.4703 7.35129 36.036 8.44313 36.0347C9.21975 36.0347 9.85032 36.6665 9.85032 37.4419ZM51.2323 69.375C51.1438 69.7839 50.9183 70.1504 50.593 70.4137C50.2678 70.6769 49.8624 70.8212 49.4439 70.8225H43.9102C43.4233 70.8225 42.9661 70.6325 42.617 70.2834C42.4471 70.1147 42.3123 69.9139 42.2206 69.6928C42.1289 69.4716 42.082 69.2344 42.0826 68.995C42.0839 68.5108 42.2769 68.0468 42.6194 67.7045C42.9619 67.3622 43.426 67.1695 43.9102 67.1686H49.4439C49.9308 67.1686 50.388 67.3574 50.7359 67.7065C51.0803 68.0497 51.2703 68.5081 51.2703 68.995C51.2715 69.1256 51.2573 69.2562 51.2323 69.375ZM71.6739 48.7766C71.6727 49.8684 71.2384 50.9152 70.4663 51.6872C69.6943 52.4593 68.6475 52.8936 67.5557 52.8948C67.1826 52.8945 66.8248 52.7462 66.561 52.4823C66.2972 52.2185 66.1488 51.8608 66.1485 51.4877V37.4419C66.1485 36.6665 66.7791 36.0347 67.5557 36.0347C68.6475 36.036 69.6943 36.4703 70.4663 37.2423C71.2384 38.0144 71.6727 39.0611 71.6739 40.153V48.7766Z" fill="#EF4136"/>
<path d="M49.5342 49.3905C51.5353 49.3883 53.4538 48.5924 54.8688 47.1774C56.2838 45.7624 57.0797 43.8439 57.0819 41.8428V26.4635C57.0819 24.4518 56.2958 22.5566 54.8684 21.1292C53.4411 19.7018 51.547 18.9157 49.5342 18.9157H26.4658C24.4647 18.9179 22.5462 19.7138 21.1312 21.1288C19.7162 22.5438 18.9203 24.4623 18.9181 26.4635V41.8428C18.9203 43.8439 19.7162 45.7624 21.1312 47.1774C22.5462 48.5924 24.4647 49.3883 26.4658 49.3905H26.6071V53.3758C26.6048 53.8624 26.6987 54.3447 26.8834 54.7949C27.0681 55.2451 27.34 55.6544 27.6834 55.9992C28.0268 56.3439 28.4351 56.6174 28.8846 56.8038C29.3341 56.9903 29.816 57.086 30.3026 57.0855C30.7889 57.0865 31.2705 56.9895 31.7185 56.8004C32.1665 56.6113 32.5719 56.3339 32.9104 55.9847L39.5402 49.3905H49.5342ZM37.5511 46.3458L30.3762 53.4815C30.3442 53.5147 30.3204 53.5396 30.2527 53.51C30.1708 53.4767 30.1708 53.4233 30.1708 53.3758V47.6093C30.1708 47.1369 29.9831 46.6838 29.6491 46.3497C29.315 46.0157 28.862 45.828 28.3896 45.828H26.467C25.4104 45.8268 24.3975 45.4065 23.6504 44.6594C22.9033 43.9123 22.483 42.8993 22.4817 41.8428V26.4635C22.483 25.4069 22.9033 24.394 23.6504 23.6469C24.3975 22.8997 25.4104 22.4795 26.467 22.4782H49.5354C50.597 22.4782 51.5957 22.8938 52.3509 23.6479C53.1062 24.4031 53.5206 25.403 53.5206 26.4635V41.8428C53.5194 42.8993 53.0991 43.9123 52.352 44.6594C51.6049 45.4065 50.5919 45.8268 49.5354 45.828H38.8075C38.3361 45.828 37.8848 46.0145 37.5511 46.3458Z" fill="#EF4136"/>
<path d="M29.3467 31.8096C27.8979 31.8096 26.7188 32.9899 26.7188 34.4375C26.7188 35.8851 27.8991 37.0654 29.3467 37.0654C30.7966 37.0654 31.977 35.8851 31.977 34.4375C31.977 32.9899 30.7978 31.8096 29.3467 31.8096ZM37.9988 31.8096C36.5501 31.8096 35.3709 32.9899 35.3709 34.4375C35.3709 35.8851 36.5513 37.0654 37.9988 37.0654C39.4499 37.0654 40.6291 35.8851 40.6291 34.4375C40.6291 32.9899 39.4499 31.8096 37.9988 31.8096ZM46.6509 31.8096C45.2022 31.8096 44.023 32.9899 44.023 34.4375C44.023 35.8851 45.2034 37.0654 46.6509 37.0654C48.1009 37.0654 49.2812 35.8851 49.2812 34.4375C49.2812 32.9899 48.1009 31.8096 46.6509 31.8096Z" fill="#EF4136"/>
</svg>
