<svg width="76" height="77" viewBox="0 0 76 77" fill="none" xmlns="http://www.w3.org/2000/svg">
<path d="M16.9892 41.6048C17.3126 41.6048 17.631 41.4735 17.8592 41.2437C18.089 41.0155 18.2203 40.6987 18.2203 40.3737C18.2203 40.0503 18.089 39.7319 17.8592 39.5037C17.631 39.2739 17.3126 39.1426 16.9892 39.1426C16.6658 39.1426 16.3474 39.2739 16.1192 39.5037C15.8894 39.7319 15.7581 40.0503 15.7581 40.3737C15.7581 40.6987 15.8894 41.0155 16.1192 41.2437C16.3474 41.4735 16.6658 41.6048 16.9892 41.6048Z" fill="#EF4136"/>
<path d="M13.0497 46.8575C13.3731 46.8575 13.6915 46.7261 13.9197 46.4963C14.1495 46.2682 14.2808 45.9497 14.2808 45.6264C14.2808 45.303 14.1495 44.9846 13.9197 44.7564C13.6915 44.5266 13.3731 44.3953 13.0497 44.3953C12.7263 44.3953 12.4079 44.5266 12.1797 44.7564C11.9499 44.9846 11.8186 45.303 11.8186 45.6264C11.8186 45.9497 11.9499 46.2682 12.1797 46.4963C12.4079 46.7261 12.7263 46.8575 13.0497 46.8575Z" fill="#EF4136"/>
<path d="M61.6371 41.6048C61.9605 41.6048 62.279 41.4735 62.5071 41.2437C62.7369 41.0155 62.8682 40.697 62.8682 40.3737C62.8682 40.0503 62.7369 39.7319 62.5071 39.5037C62.279 39.2739 61.9605 39.1426 61.6371 39.1426C61.3138 39.1426 60.9953 39.2739 60.7672 39.5037C60.5374 39.7319 60.406 40.0503 60.406 40.3737C60.406 40.697 60.5374 41.0155 60.7672 41.2437C60.9953 41.4735 61.3138 41.6048 61.6371 41.6048Z" fill="#EF4136"/>
<path d="M59.0108 37.6652C59.3342 37.6652 59.6526 37.5339 59.8808 37.3041C60.1106 37.0759 60.2419 36.7575 60.2419 36.4341C60.2419 36.1107 60.1106 35.7923 59.8808 35.5641C59.6526 35.3343 59.3342 35.203 59.0108 35.203C58.6874 35.203 58.369 35.3343 58.1408 35.5641C57.911 35.7923 57.7797 36.1107 57.7797 36.4341C57.7797 36.7575 57.911 37.0759 58.1408 37.3041C58.369 37.5339 58.6874 37.6652 59.0108 37.6652Z" fill="#EF4136"/>
<path d="M59.0108 48.1706C59.3342 48.1706 59.6526 48.0393 59.8808 47.8095C60.1106 47.5813 60.2419 47.2629 60.2419 46.9395C60.2419 46.6162 60.1106 46.2977 59.8808 46.0696C59.6526 45.8398 59.3342 45.7084 59.0108 45.7084C58.6874 45.7084 58.369 45.8398 58.1408 46.0696C57.911 46.2977 57.7797 46.6162 57.7797 46.9395C57.7797 47.2629 57.911 47.5813 58.1408 47.8095C58.369 48.0393 58.6874 48.1706 59.0108 48.1706Z" fill="#EF4136"/>
<path d="M61.6371 53.4233C61.9605 53.4233 62.279 53.292 62.5071 53.0622C62.7369 52.834 62.8682 52.5156 62.8682 52.1922C62.8682 51.8689 62.7369 51.5504 62.5071 51.3222C62.279 51.0924 61.9605 50.9611 61.6371 50.9611C61.3121 50.9611 60.9953 51.0924 60.7672 51.3222C60.5374 51.5504 60.406 51.8689 60.406 52.1922C60.406 52.5156 60.5374 52.834 60.7672 53.0622C60.9953 53.292 61.3138 53.4233 61.6371 53.4233Z" fill="#EF4136"/>
<path d="M39.3132 45.5443C39.6366 45.5443 39.955 45.413 40.1832 45.1832C40.413 44.955 40.5443 44.6382 40.5443 44.3132C40.5443 43.9898 40.413 43.6714 40.1832 43.4432C39.955 43.2134 39.6366 43.0821 39.3132 43.0821C38.9898 43.0821 38.6714 43.2134 38.4432 43.4432C38.2134 43.6714 38.0821 43.9898 38.0821 44.3132C38.0821 44.6382 38.2134 44.955 38.4432 45.1832C38.6714 45.413 38.9898 45.5443 39.3132 45.5443Z" fill="#EF4136"/>
<path d="M38 52.1102C38.3234 52.1102 38.6418 51.9788 38.87 51.749C39.0998 51.5209 39.2311 51.2024 39.2311 50.8791C39.2311 50.5557 39.0998 50.2372 38.87 50.0091C38.6418 49.7793 38.3234 49.6479 38 49.6479C37.6767 49.6479 37.3582 49.7793 37.13 50.0091C36.9002 50.2372 36.7689 50.554 36.7689 50.8791C36.7689 51.2041 36.9002 51.5209 37.13 51.749C37.3582 51.9788 37.6767 52.1102 38 52.1102Z" fill="#EF4136"/>
<path d="M16.9892 52.1102C17.3126 52.1102 17.631 51.9788 17.8592 51.749C18.089 51.5209 18.2203 51.2024 18.2203 50.8791C18.2203 50.554 18.089 50.2372 17.8592 50.0091C17.631 49.7793 17.3126 49.6479 16.9892 49.6479C16.6658 49.6479 16.3474 49.7793 16.1192 50.0091C15.8894 50.2372 15.7581 50.554 15.7581 50.8791C15.7581 51.2024 15.8894 51.5209 16.1192 51.749C16.3474 51.9788 16.6658 52.1102 16.9892 52.1102Z" fill="#EF4136"/>
<path d="M70.8294 29.9503H68.1209V8.85745C68.1209 8.0881 68.7468 7.4622 69.5162 7.4622C70.1961 7.4622 70.7473 6.911 70.7473 6.2311C70.7473 5.55121 70.1961 5 69.5162 5H51.1318C50.4519 5 49.9007 5.55121 49.9007 6.2311C49.9007 6.911 50.4519 7.4622 51.1318 7.4622C51.9011 7.4622 52.527 8.0881 52.527 8.85745V29.9503H45.797V8.85745C45.797 8.0881 46.4229 7.4622 47.1922 7.4622C47.8721 7.4622 48.4233 6.911 48.4233 6.2311C48.4233 5.55121 47.8721 5 47.1922 5H28.8078C28.1279 5 27.5767 5.55121 27.5767 6.2311C27.5767 6.911 28.1279 7.4622 28.8078 7.4622C29.5771 7.4622 30.203 8.0881 30.203 8.85745V29.9503H23.473V8.85745C23.473 8.0881 24.0989 7.4622 24.8683 7.4622C25.5481 7.4622 26.0994 6.911 26.0994 6.2311C26.0994 5.55121 25.5481 5 24.8683 5H6.4838C5.80391 5 5.2527 5.55121 5.2527 6.2311C5.2527 6.911 5.80391 7.4622 6.4838 7.4622C7.25316 7.4622 7.87905 8.0881 7.87905 8.85745V29.9503H5.17063C2.31956 29.9503 0 32.2699 0 35.121V64.0108C0 66.8619 2.31956 69.1814 5.17063 69.1814H5.2527V70.5767C5.2527 71.2566 5.80391 71.8078 6.4838 71.8078C7.1637 71.8078 7.7149 71.2566 7.7149 70.5767V69.1814H68.2851V70.5767C68.2851 71.2566 68.8363 71.8078 69.5162 71.8078C70.1961 71.8078 70.7473 71.2566 70.7473 70.5767V69.1814H70.8294C73.6804 69.1814 76 66.8619 76 64.0108V35.121C76 32.2699 73.6804 29.9503 70.8294 29.9503ZM65.9209 7.4622C65.7523 7.89522 65.6587 8.3655 65.6587 8.85745V25.7185C65.554 25.6618 65.4483 25.5986 65.3331 25.5295C64.7151 25.1589 63.9459 24.6976 62.5102 24.6976C61.0746 24.6976 60.3054 25.1589 59.6874 25.5295C59.204 25.8194 58.8847 26.0108 58.1306 26.0108C57.3789 26.0108 57.0604 25.8194 56.5783 25.53C56.167 25.2828 55.6872 24.9962 54.9892 24.8319V8.85745C54.9892 8.3655 54.8956 7.89522 54.7271 7.4622H65.9209ZM54.9892 27.4538C55.0924 27.51 55.1968 27.5723 55.3104 27.6406C55.9278 28.0114 56.6962 28.473 58.1306 28.473C59.5664 28.473 60.3356 28.0118 60.9536 27.6411C61.4369 27.3512 61.7562 27.1598 62.5102 27.1598C63.2643 27.1598 63.5836 27.3514 64.0668 27.6411C64.479 27.8881 64.9595 28.1749 65.6587 28.3391V29.9503H54.9892V27.4538ZM54.9892 32.4125H65.6587V54.8186C65.6587 57.7601 63.2655 60.1533 60.324 60.1533C57.3825 60.1533 54.9892 57.7601 54.9892 54.8186V32.4125ZM32.4031 7.4622H43.5971C43.4283 7.89522 43.3348 8.3655 43.3348 8.85745V29.9503H32.6652V8.85745C32.6652 8.3655 32.5717 7.89522 32.4031 7.4622ZM32.6652 39.2724C32.7685 39.3285 32.8729 39.3909 32.9865 39.4592C33.6038 39.83 34.3722 40.2916 35.8067 40.2916C37.2425 40.2916 38.0117 39.8303 38.6297 39.4597C39.1129 39.1698 39.4322 38.9784 40.1863 38.9784C40.9404 38.9784 41.2596 39.17 41.7429 39.4597C42.1551 39.7067 42.6355 39.9935 43.3348 40.1576V54.8186C43.3348 57.7601 40.9415 60.1533 38 60.1533C35.0585 60.1533 32.6652 57.7601 32.6652 54.8186V39.2724ZM43.3348 37.537C43.23 37.4804 43.1243 37.4172 43.0091 37.3481C42.3911 36.9775 41.6219 36.5162 40.1863 36.5162C38.7506 36.5162 37.9814 36.9775 37.3634 37.3481C36.88 37.638 36.5608 37.8294 35.8067 37.8294C35.0549 37.8294 34.7364 37.638 34.2543 37.3486C33.843 37.1014 33.3632 36.8148 32.6652 36.6505V32.4125H43.3348V37.537ZM10.0791 7.4622H21.2731C21.1044 7.89522 21.0108 8.3655 21.0108 8.85745V29.9503H10.3413V8.85745C10.3413 8.3655 10.2477 7.89522 10.0791 7.4622ZM10.3413 36.646C10.4445 36.7022 10.5489 36.7646 10.6625 36.8328C11.2798 37.2036 12.0482 37.6652 13.4827 37.6652C14.9185 37.6652 15.6877 37.204 16.3057 36.8333C16.7889 36.5434 17.1082 36.3521 17.8623 36.3521C18.6164 36.3521 18.9357 36.5436 19.4189 36.8333C19.8311 37.0804 20.3115 37.3671 21.0108 37.5313V54.8186C21.0108 57.7601 18.6175 60.1533 15.676 60.1533C12.7345 60.1533 10.3413 57.7601 10.3413 54.8186V36.646ZM21.0108 34.9107C20.9061 34.854 20.8004 34.7908 20.6851 34.7217C20.0671 34.3511 19.2979 33.8898 17.8623 33.8898C16.4267 33.8898 15.6575 34.3511 15.0395 34.7217C14.5561 35.0116 14.2368 35.203 13.4827 35.203C12.7309 35.203 12.4125 35.0116 11.9304 34.7222C11.519 34.475 11.0392 34.1884 10.3413 34.0241V32.4125H21.0108V34.9107ZM73.5378 64.0108C73.5378 65.5042 72.3228 66.7192 70.8294 66.7192H5.17063C3.67722 66.7192 2.4622 65.5042 2.4622 64.0108V35.121C2.4622 33.6275 3.67722 32.4125 5.17063 32.4125H7.87905V54.8186C7.87905 59.1177 11.3769 62.6156 15.676 62.6156C19.9752 62.6156 23.473 59.1177 23.473 54.8186V32.4125H30.203V54.8186C30.203 59.1177 33.7008 62.6156 38 62.6156C42.2992 62.6156 45.797 59.1177 45.797 54.8186V32.4125H52.527V54.8186C52.527 59.1177 56.0248 62.6156 60.324 62.6156C64.6231 62.6156 68.1209 59.1177 68.1209 54.8186V32.4125H70.8294C72.3228 32.4125 73.5378 33.6275 73.5378 35.121V64.0108Z" fill="#EF4136"/>
</svg>
