<svg width="60" height="60" viewBox="0 0 60 60" fill="none" xmlns="http://www.w3.org/2000/svg">
<g id="tick-circle_svgrepo.com">
<path id="Vector" fill-rule="evenodd" clip-rule="evenodd" d="M39.0524 23.5115C39.8034 24.2625 39.8034 25.48 39.0524 26.231L28.7959 36.4875C28.0449 37.2385 26.8271 37.2385 26.0761 36.4875L20.948 31.3593C20.197 30.6083 20.197 29.3908 20.948 28.6398C21.699 27.8888 22.9166 27.8888 23.6677 28.6398L27.4361 32.408L36.3326 23.5115C37.0836 22.7605 38.3011 22.7605 39.0524 23.5115Z" fill="#EF4136"/>
<path id="Vector_2" fill-rule="evenodd" clip-rule="evenodd" d="M30 8.84615C18.317 8.84615 8.84615 18.317 8.84615 30C8.84615 41.683 18.317 51.1538 30 51.1538C41.683 51.1538 51.1538 41.683 51.1538 30C51.1538 18.317 41.683 8.84615 30 8.84615ZM5 30C5 16.1929 16.1929 5 30 5C43.807 5 55 16.1929 55 30C55 43.807 43.807 55 30 55C16.1929 55 5 43.807 5 30Z" fill="#EF4136"/>
</g>
</svg>
