<svg width="65" height="65" viewBox="0 0 65 65" fill="none" xmlns="http://www.w3.org/2000/svg">
<g id="tick_svgrepo.com" clip-path="url(#clip0_2488_6848)">
<path id="Vector" d="M47.0913 22.8248C46.5793 22.5688 45.8113 22.5688 45.2993 22.8248L29.4273 39.2088L22.0033 31.5288C21.4913 31.0168 20.7233 31.0168 20.2113 31.5288C19.6993 32.0408 19.6993 32.8088 19.9553 33.3208L28.4033 41.7688H28.6593C28.6593 41.7688 28.9153 41.7688 28.9153 42.0248H29.9393C29.9393 42.0248 30.1953 42.0248 30.1953 41.7688H30.4513L47.3472 24.6168C47.3472 24.1048 47.3473 23.3368 47.0913 22.8248Z" fill="#EF4136"/>
<path id="Vector_2" d="M32.5 64.8086C14.836 64.8086 0.5 50.4726 0.5 32.8086C0.5 15.1446 14.836 0.808594 32.5 0.808594C50.164 0.808594 64.5 15.1446 64.5 32.8086C64.5 50.4726 50.164 64.8086 32.5 64.8086ZM32.5 3.36859C16.372 3.36859 3.06 16.6806 3.06 32.8086C3.06 48.9366 16.372 62.2486 32.5 62.2486C48.628 62.2486 61.94 48.9366 61.94 32.8086C61.94 16.6806 48.628 3.36859 32.5 3.36859Z" fill="#EF4136"/>
</g>
<defs>
<clipPath id="clip0_2488_6848">
<rect width="64" height="64" fill="white" transform="translate(0.5 0.808594)"/>
</clipPath>
</defs>
</svg>
