<svg width="126" height="42" viewBox="0 0 126 42" fill="none" xmlns="http://www.w3.org/2000/svg">
<path d="M7.42014 17.4455V23.0522H17.9817V26.9319H2.82422V4.11304H17.6558V7.99272H7.42014V13.5664H17.1675V17.4455H7.42014Z" fill="#FDFEFF"/>
<path d="M43.8674 22.7274C42.6936 25.4327 40.2487 27.2583 36.5 27.2583C31.0887 27.2583 28.3828 23.8681 28.3828 18.7827C28.3828 13.6974 31.0887 10.3071 36.5 10.3071C39.9877 10.3071 42.4007 11.9048 43.6389 14.2187L39.6623 16.5987C38.88 15.001 37.7063 14.1857 36.5 14.1857C34.12 14.1857 32.9793 15.9788 32.9793 18.7822C32.9793 21.5855 34.12 23.3786 36.5 23.3786C37.7387 23.3786 39.0424 22.5302 39.6948 20.8682L43.8674 22.7274Z" fill="#FDFEFF"/>
<path d="M50.6473 26.9319H46.0508V3.13525H50.6473V12.1653C51.886 10.8935 53.2552 10.3066 55.1782 10.3066C58.438 10.3066 60.3616 12.2952 60.3616 16.4677V26.9313H55.7657V16.5657C55.7657 14.9037 54.8529 14.1857 53.4831 14.1857C51.788 14.1857 50.6473 15.6199 50.6473 19.3041V26.9319Z" fill="#FDFEFF"/>
<path d="M25.8465 19.3041V26.9319H21.25V3.13525H25.8465V12.1653V19.3041Z" fill="#FDFEFF"/>
<path d="M78.2388 25.6602C75.9898 26.7365 73.8053 27.2578 71.7842 27.2578C66.2425 27.2578 62.8203 24.0311 62.8203 18.7822C62.8203 13.6969 65.5587 10.3066 70.9369 10.3066C76.0223 10.3066 78.5322 13.5664 78.5322 18.0649V20.4774H67.5792C68.0362 22.303 69.3723 23.3787 71.8822 23.3787C73.252 23.3787 74.881 22.9548 76.7727 22.042L78.2388 25.6602ZM67.6766 16.7293H73.9033C73.7728 14.9681 72.5666 14.1858 70.9364 14.1858C69.2094 14.1858 68.133 15.1316 67.6766 16.7293Z" fill="#FDFEFF"/>
<path d="M93.7497 12.8911C94.8904 11.229 96.6835 10.3487 98.7046 10.3487C102.225 10.3487 104.703 12.2393 104.703 16.1514V26.974H100.106V16.0853C100.106 14.7817 99.063 14.2267 98.1832 14.2267C96.2602 14.2267 95.2819 15.7269 95.2819 18.3993V26.9729H90.6859V16.2813C90.6859 14.8791 89.6751 14.2273 88.6319 14.2273C87.0028 14.2273 85.8615 15.7275 85.8615 18.4329V26.9734H81.2656V10.6741H85.8615V12.3042C86.7419 10.9681 87.8176 10.3481 89.4142 10.3481C91.3378 10.3481 92.9343 11.2609 93.7497 12.8911Z" fill="#FDFEFF"/>
<path d="M116.964 25.4682L110.834 39.616H105.879L111.746 25.2458L105.879 10.6741H110.867L116.964 25.4682Z" fill="#FDFEFF"/>
<path d="M114.82 20.2267L118.366 10.6748H123.288L119.174 20.2334L114.82 20.2267Z" fill="url(#paint0_linear_597_1130)"/>
<defs>
<linearGradient id="paint0_linear_597_1130" x1="114.82" y1="15.4538" x2="123.288" y2="15.4538" gradientUnits="userSpaceOnUse">
<stop stop-color="#F15B2A"/>
<stop offset="1" stop-color="#EF4137"/>
</linearGradient>
</defs>
</svg>
